{"glyphs":{"0":{"ha":785,"x_min":0,"x_max":0,"o":"m 390 79 b 168 486 283 79 168 194 b 390 892 168 778 283 892 b 614 486 497 892 614 778 b 390 79 614 194 497 79 z m 390 993 b 60 486 208 993 60 836 b 390 -21 60 136 208 -21 b 722 486 574 -21 722 136 b 390 993 722 836 574 993 z "},"1":{"ha":726,"x_min":0,"x_max":0,"o":"m 693 107 l 429 107 l 429 993 l 369 993 l 24 797 l 72 710 l 321 850 l 321 107 l 57 107 l 57 0 l 693 0 z "},"2":{"ha":753,"x_min":0,"x_max":0,"o":"m 118 725 b 376 888 200 840 272 888 b 567 692 490 888 567 806 b 46 85 567 519 181 229 l 46 0 l 690 0 l 690 107 l 207 107 b 675 703 360 268 675 490 b 374 993 675 872 564 993 b 38 797 215 993 117 907 z "},"3":{"ha":742,"x_min":0,"x_max":0,"o":"m 190 478 b 338 529 236 510 281 529 b 576 299 481 529 576 426 b 321 79 576 168 464 79 b 114 235 231 79 154 143 l 25 188 b 328 -21 86 56 199 -21 b 685 299 524 -21 685 122 b 364 629 685 465 569 626 l 679 972 l 86 972 l 86 865 l 458 865 l 142 522 z "},"4":{"ha":785,"x_min":0,"x_max":0,"o":"m 600 0 l 600 260 l 756 260 l 756 363 l 600 363 l 600 993 l 494 993 l 22 315 l 40 260 l 492 260 l 492 0 z m 492 814 l 492 363 l 176 363 z "},"5":{"ha":742,"x_min":0,"x_max":0,"o":"m 321 79 b 114 235 231 79 154 143 l 25 188 b 328 -21 86 56 199 -21 b 685 299 524 -21 685 122 b 358 629 685 467 568 629 b 207 599 300 629 249 618 l 289 865 l 665 865 l 665 972 l 211 972 l 72 476 l 142 436 b 338 529 197 492 265 529 b 576 299 481 529 576 426 b 321 79 576 168 464 79 z "},"6":{"ha":772,"x_min":0,"x_max":0,"o":"m 388 -21 b 718 304 576 -21 718 111 b 393 632 718 490 588 632 b 175 544 301 632 229 601 b 596 888 208 729 339 849 l 596 996 b 54 376 224 960 54 717 b 388 -21 54 153 150 -21 z m 169 307 b 388 533 169 440 260 533 b 607 307 515 533 607 440 b 388 78 607 172 515 78 b 169 307 260 78 169 172 z "},"7":{"ha":736,"x_min":0,"x_max":0,"o":"m 703 903 l 703 972 l 26 972 l 26 865 l 563 865 l 151 0 l 276 0 z "},"8":{"ha":751,"x_min":0,"x_max":0,"o":"m 54 267 b 372 -21 54 103 186 -21 b 688 267 558 -21 688 103 b 515 517 688 393 619 476 b 656 747 599 556 656 638 b 372 993 656 889 540 993 b 89 747 210 993 89 889 b 228 518 89 638 143 556 b 54 267 124 476 54 393 z m 579 276 b 372 82 579 164 489 82 b 163 276 253 82 163 167 b 372 469 163 385 253 469 b 579 276 489 469 579 388 z m 547 731 b 372 572 547 639 469 572 b 197 731 274 572 197 639 b 372 890 197 824 274 890 b 547 731 469 890 547 824 z "},"9":{"ha":783,"x_min":0,"x_max":0,"o":"m 385 993 b 54 668 196 993 54 861 b 379 340 54 482 185 340 b 597 428 471 340 543 371 b 176 85 564 243 433 124 l 176 -24 b 718 596 549 13 718 256 b 385 993 718 819 622 993 z m 603 665 b 385 439 603 532 513 439 b 165 665 257 439 165 532 b 385 894 165 800 257 894 b 603 665 513 894 603 800 z "},"\u0000":{"ha":0,"x_min":0,"x_max":0,"o":""},"\r":{"ha":347,"x_min":0,"x_max":0,"o":""}," ":{"ha":347,"x_min":0,"x_max":0,"o":""},"!":{"ha":231,"x_min":0,"x_max":0,"o":"m 74 243 l 163 243 l 182 972 l 53 972 z m 38 69 b 115 -7 38 26 72 -7 b 193 69 157 -7 193 26 b 115 147 193 111 157 147 b 38 69 72 147 38 111 z "},"\"":{"ha":447,"x_min":0,"x_max":0,"o":"m 260 628 l 339 628 l 406 972 l 288 972 z m 56 628 l 135 628 l 201 972 l 83 972 z "},"#":{"ha":929,"x_min":0,"x_max":0,"o":"m 154 0 l 264 0 l 301 215 l 532 215 l 494 0 l 604 0 l 642 215 l 833 215 l 833 325 l 661 325 l 718 651 l 889 651 l 889 761 l 736 761 l 772 972 l 663 972 l 626 761 l 396 761 l 432 972 l 322 972 l 286 761 l 94 761 l 94 651 l 267 651 l 211 325 l 39 325 l 39 215 l 192 215 z m 321 325 l 378 651 l 607 651 l 551 325 z "},"$":{"ha":769,"x_min":0,"x_max":0,"o":"m 42 136 b 335 -18 132 46 219 -7 l 335 -139 l 429 -139 l 429 -18 b 724 272 610 0 724 126 b 429 550 724 469 572 514 l 429 888 b 642 754 510 874 568 828 l 710 842 b 429 990 619 926 543 979 l 429 1111 l 335 1111 l 335 992 b 74 732 176 976 74 876 b 335 456 74 544 203 492 l 335 85 b 108 218 250 99 182 146 z m 614 271 b 429 85 614 183 546 103 l 429 432 b 614 271 531 404 614 371 z m 178 732 b 335 889 178 817 239 876 l 335 575 b 178 732 246 601 178 639 z "},"%":{"ha":1056,"x_min":0,"x_max":0,"o":"m 219 0 l 957 972 l 835 972 l 97 0 z m 240 508 b 140 708 193 508 140 564 b 240 910 140 853 193 910 b 343 708 289 910 343 853 b 240 508 343 564 289 508 z m 240 993 b 56 708 139 993 56 906 b 240 425 56 513 139 425 b 428 708 344 425 428 513 b 240 993 428 906 344 993 z m 815 464 b 915 264 863 464 915 408 b 815 63 915 119 863 63 b 713 264 767 63 713 119 b 815 464 713 408 767 464 z m 815 -21 b 1000 264 917 -21 1000 67 b 815 547 1000 460 917 547 b 628 264 711 547 628 460 b 815 -21 628 67 711 -21 z "},"&":{"ha":915,"x_min":0,"x_max":0,"o":"m 382 -21 b 747 481 663 -21 807 235 l 888 515 l 888 618 l 493 517 l 493 415 l 654 456 b 382 82 683 271 603 82 b 151 264 240 82 151 143 b 371 451 151 381 278 451 l 414 451 l 414 553 l 364 553 b 203 725 282 553 203 619 b 393 892 203 839 288 892 b 578 835 465 892 521 874 l 642 919 b 390 993 576 965 506 993 b 93 725 226 993 93 885 b 232 507 93 633 125 553 b 42 264 106 468 42 369 b 382 -21 42 92 204 -21 z "},"'":{"ha":243,"x_min":0,"x_max":0,"o":"m 56 628 l 135 628 l 201 972 l 83 972 z "},"(":{"ha":581,"x_min":0,"x_max":0,"o":"m 63 410 b 490 -222 63 140 201 -67 l 532 -150 b 171 410 274 -1 171 201 b 532 969 171 618 274 821 l 490 1042 b 63 410 201 886 63 679 z "},")":{"ha":581,"x_min":0,"x_max":0,"o":"m 518 410 b 90 1042 518 679 379 886 l 49 969 b 410 410 307 821 410 618 b 49 -150 410 201 307 -1 l 90 -222 b 518 410 379 -67 518 140 z "},"*":{"ha":632,"x_min":0,"x_max":0,"o":"m 342 803 l 374 1019 l 257 1019 l 289 803 l 117 936 l 56 839 l 263 756 l 57 674 l 117 574 l 289 707 l 257 492 l 374 492 l 342 707 l 515 574 l 575 674 l 369 756 l 576 839 l 515 936 z "},"+":{"ha":889,"x_min":0,"x_max":0,"o":"m 65 347 l 394 347 l 394 19 l 494 19 l 494 347 l 825 347 l 825 447 l 494 447 l 494 775 l 394 775 l 394 447 l 65 447 z "},",":{"ha":299,"x_min":0,"x_max":0,"o":"m 14 -224 l 89 -224 l 243 171 l 114 171 z "},"-":{"ha":492,"x_min":0,"x_max":0,"o":"m 56 271 l 436 271 l 436 360 l 56 360 z "},".":{"ha":296,"x_min":0,"x_max":0,"o":"m 69 69 b 147 -7 69 26 104 -7 b 226 69 190 -7 226 26 b 147 147 226 111 190 147 b 69 69 104 147 69 111 z "},"/":{"ha":686,"x_min":0,"x_max":0,"o":"m 110 -139 l 686 1042 l 575 1042 l 0 -139 z "},":":{"ha":296,"x_min":0,"x_max":0,"o":"m 69 69 b 147 -7 69 26 104 -7 b 226 69 190 -7 226 26 b 147 147 226 111 190 147 b 69 69 104 147 69 111 z m 69 550 b 147 474 69 507 104 474 b 226 550 190 474 226 507 b 147 628 226 592 190 628 b 69 550 104 628 69 592 z "},";":{"ha":308,"x_min":0,"x_max":0,"o":"m 82 550 b 160 474 82 507 117 474 b 239 550 203 474 239 507 b 160 628 239 592 203 628 b 82 550 117 628 82 592 z m 0 -224 l 75 -224 l 229 171 l 100 171 z "},"<":{"ha":889,"x_min":0,"x_max":0,"o":"m 825 661 l 825 775 l 65 433 l 65 361 l 825 19 l 825 133 l 239 397 z "},"=":{"ha":889,"x_min":0,"x_max":0,"o":"m 65 208 l 825 208 l 825 308 l 65 308 z m 65 486 l 825 486 l 825 586 l 65 586 z "},">":{"ha":889,"x_min":0,"x_max":0,"o":"m 65 661 l 651 397 l 65 133 l 65 19 l 825 361 l 825 433 l 65 775 z "},"?":{"ha":714,"x_min":0,"x_max":0,"o":"m 378 292 b 672 736 378 536 672 476 b 371 993 672 900 563 993 b 50 814 211 993 119 932 l 133 753 b 363 893 201 861 274 893 b 564 736 465 893 564 849 b 285 335 564 556 285 582 l 285 243 l 378 243 z m 253 69 b 331 -7 253 26 288 -7 b 410 69 374 -7 410 26 b 331 147 410 111 374 147 b 253 69 288 147 253 111 z "},"@":{"ha":1233,"x_min":0,"x_max":0,"o":"m 631 897 b 57 338 317 897 57 683 b 657 -250 57 -8 279 -246 l 657 -153 b 158 338 333 -153 158 46 b 631 801 158 626 378 801 b 1044 396 939 801 1044 589 b 878 75 1044 231 969 75 b 847 119 861 75 847 86 b 850 174 847 131 849 154 l 883 628 l 782 628 l 776 569 b 596 643 725 619 658 643 b 276 308 401 643 276 507 b 567 -21 276 129 376 -21 b 757 54 632 -21 703 0 b 842 -21 761 0 803 -21 b 1147 394 1031 -21 1147 181 b 631 897 1147 638 996 897 z m 569 75 b 379 310 444 75 379 182 b 593 547 379 453 461 547 b 768 456 650 547 717 515 l 746 161 b 569 75 693 104 626 75 z "},"A":{"ha":904,"x_min":0,"x_max":0,"o":"m 149 0 l 263 281 l 640 281 l 756 0 l 876 0 l 469 972 l 435 972 l 28 0 z m 451 743 l 596 389 l 307 389 z "},"B":{"ha":740,"x_min":0,"x_max":0,"o":"m 213 867 l 333 867 b 514 713 440 867 514 814 b 360 558 514 619 456 558 l 213 558 z m 213 106 l 213 453 l 363 453 b 576 278 483 453 576 379 b 363 106 576 164 481 106 z m 397 0 b 685 261 558 0 685 111 b 476 511 685 369 632 482 b 624 733 565 544 624 631 b 365 972 624 868 513 972 l 104 972 l 104 0 z "},"C":{"ha":1067,"x_min":0,"x_max":0,"o":"m 590 -21 b 1004 194 761 -21 913 64 l 918 256 b 590 85 847 153 729 85 b 193 486 364 85 193 264 b 590 888 193 708 364 888 b 918 717 729 888 847 819 l 1004 778 b 590 993 913 908 761 993 b 83 486 310 993 83 767 b 590 -21 83 206 310 -21 z "},"D":{"ha":960,"x_min":0,"x_max":0,"o":"m 897 486 b 400 972 897 767 679 972 l 104 972 l 104 0 l 400 0 b 897 486 679 0 897 206 z m 788 486 b 400 106 788 264 626 106 l 213 106 l 213 867 l 400 867 b 788 486 626 867 788 708 z "},"E":{"ha":628,"x_min":0,"x_max":0,"o":"m 586 106 l 213 106 l 213 453 l 551 453 l 551 558 l 213 558 l 213 867 l 586 867 l 586 972 l 104 972 l 104 0 l 586 0 z "},"F":{"ha":628,"x_min":0,"x_max":0,"o":"m 104 0 l 213 0 l 213 453 l 551 453 l 551 558 l 213 558 l 213 867 l 586 867 l 586 972 l 104 972 z "},"G":{"ha":1068,"x_min":0,"x_max":0,"o":"m 1004 778 b 590 993 913 908 761 993 b 83 486 310 993 83 767 b 590 -21 83 206 310 -21 b 1006 196 761 -21 914 65 l 1006 497 l 563 497 l 563 392 l 897 392 l 897 235 b 590 85 828 143 717 85 b 193 486 364 85 193 264 b 590 888 193 708 364 888 b 918 717 729 888 847 819 z "},"H":{"ha":1019,"x_min":0,"x_max":0,"o":"m 213 972 l 104 972 l 104 0 l 213 0 l 213 453 l 807 453 l 807 0 l 915 0 l 915 972 l 807 972 l 807 558 l 213 558 z "},"I":{"ha":317,"x_min":0,"x_max":0,"o":"m 213 972 l 104 972 l 104 0 l 213 0 z "},"J":{"ha":556,"x_min":0,"x_max":0,"o":"m 386 263 b 226 82 386 142 342 82 b 68 149 168 82 115 107 l 6 68 b 226 -21 65 14 146 -21 b 494 263 449 -21 494 151 l 494 972 l 386 972 z "},"K":{"ha":867,"x_min":0,"x_max":0,"o":"m 211 0 l 211 453 l 307 453 b 785 -8 428 453 536 -8 b 846 0 806 -8 826 -6 l 846 108 b 808 103 833 106 821 103 b 401 507 624 103 528 489 l 808 972 l 678 972 l 314 558 l 211 558 l 211 972 l 104 972 l 104 0 z "},"L":{"ha":628,"x_min":0,"x_max":0,"o":"m 104 0 l 586 0 l 586 106 l 213 106 l 213 972 l 104 972 z "},"M":{"ha":1185,"x_min":0,"x_max":0,"o":"m 76 0 l 186 0 l 244 654 l 569 0 l 615 0 l 940 654 l 999 0 l 1108 0 l 1021 972 l 976 972 l 590 197 l 208 972 l 164 972 z "},"N":{"ha":1019,"x_min":0,"x_max":0,"o":"m 213 972 l 104 972 l 104 0 l 213 0 l 213 783 l 807 0 l 915 0 l 915 972 l 807 972 l 807 188 z "},"O":{"ha":1161,"x_min":0,"x_max":0,"o":"m 193 486 b 581 888 193 708 354 888 b 968 486 807 888 968 708 b 581 85 968 264 807 85 b 193 486 354 85 193 264 z m 83 486 b 581 -21 83 206 300 -21 b 1078 486 860 -21 1078 206 b 581 993 1078 767 860 993 b 83 486 300 993 83 767 z "},"P":{"ha":722,"x_min":0,"x_max":0,"o":"m 213 469 l 213 867 l 358 867 b 572 669 476 867 572 783 b 358 469 572 556 476 469 z m 369 364 b 681 669 543 364 681 501 b 369 972 681 838 543 972 l 104 972 l 104 0 l 213 0 l 213 364 z "},"Q":{"ha":1161,"x_min":0,"x_max":0,"o":"m 83 486 b 581 -21 83 206 300 -21 b 828 44 671 -21 756 3 b 1161 -132 899 -67 986 -169 l 1161 -24 b 919 113 1044 -53 979 21 b 1078 486 1017 206 1078 338 b 581 993 1078 767 860 993 b 83 486 300 993 83 767 z m 581 85 b 193 486 354 85 193 264 b 581 888 193 708 354 888 b 968 486 807 888 968 708 b 861 204 968 376 929 276 b 539 368 789 318 707 419 l 539 260 b 772 135 651 297 714 226 b 581 85 717 103 653 85 z "},"R":{"ha":803,"x_min":0,"x_max":0,"o":"m 325 369 b 700 -8 404 369 475 -8 b 761 0 721 -8 742 -6 l 761 108 b 725 103 750 104 738 103 b 446 385 589 103 526 353 b 694 669 588 407 694 525 b 383 972 694 842 553 972 l 104 972 l 104 0 l 213 0 l 213 369 z m 213 475 l 213 867 l 374 867 b 588 669 486 867 588 788 b 374 475 588 551 486 475 z "},"S":{"ha":765,"x_min":0,"x_max":0,"o":"m 178 732 b 376 892 178 829 257 892 b 642 754 488 892 553 843 l 710 842 b 378 993 607 939 522 993 b 74 732 196 993 74 889 b 614 271 74 349 614 526 b 382 82 614 172 528 82 b 108 218 274 82 196 133 l 42 136 b 382 -21 144 33 243 -21 b 724 272 589 -21 724 114 b 178 732 724 647 178 471 z "},"T":{"ha":842,"x_min":0,"x_max":0,"o":"m 475 0 l 475 867 l 807 867 l 807 972 l 35 972 l 35 867 l 367 867 l 367 0 z "},"U":{"ha":1019,"x_min":0,"x_max":0,"o":"m 922 972 l 814 972 l 814 386 b 510 85 814 203 679 85 b 206 386 340 85 206 203 l 206 972 l 97 972 l 97 386 b 510 -21 97 146 268 -21 b 922 386 751 -21 922 146 z "},"V":{"ha":904,"x_min":0,"x_max":0,"o":"m 28 972 l 435 0 l 469 0 l 876 972 l 756 972 l 451 229 l 149 972 z "},"W":{"ha":1350,"x_min":0,"x_max":0,"o":"m 28 972 l 368 0 l 407 0 l 675 733 l 943 0 l 982 0 l 1322 972 l 1208 972 l 954 243 l 692 972 l 658 972 l 396 243 l 142 972 z "},"X":{"ha":903,"x_min":0,"x_max":0,"o":"m 172 972 l 42 972 l 388 496 l 28 0 l 158 0 l 451 406 l 744 0 l 875 0 l 515 496 l 861 972 l 731 972 l 451 585 z "},"Y":{"ha":797,"x_min":0,"x_max":0,"o":"m 344 331 l 344 0 l 453 0 l 453 331 l 783 972 l 661 972 l 399 461 l 136 972 l 14 972 z "},"Z":{"ha":813,"x_min":0,"x_max":0,"o":"m 775 972 l 46 972 l 46 871 l 615 871 l 28 68 l 28 0 l 785 0 l 785 101 l 186 101 l 775 904 z "},"[":{"ha":407,"x_min":0,"x_max":0,"o":"m 69 -222 l 365 -222 l 365 -122 l 185 -122 l 185 942 l 365 942 l 365 1042 l 69 1042 z "},"\\":{"ha":686,"x_min":0,"x_max":0,"o":"m 576 -139 l 686 -139 l 111 1042 l 0 1042 z "},"]":{"ha":407,"x_min":0,"x_max":0,"o":"m 338 -222 l 338 1042 l 42 1042 l 42 942 l 222 942 l 222 -122 l 42 -122 l 42 -222 z "},"^":{"ha":654,"x_min":0,"x_max":0,"o":"m 524 581 l 629 581 l 354 972 l 293 972 l 24 581 l 129 581 l 326 856 z "},"_":{"ha":935,"x_min":0,"x_max":0,"o":"m -3 -260 l 938 -260 l 938 -158 l -3 -158 z "},"`":{"ha":382,"x_min":0,"x_max":0,"o":"m 249 801 l 340 801 l 192 1042 l 42 1042 z "},"a":{"ha":663,"x_min":0,"x_max":0,"o":"m 265 -17 b 474 97 347 -17 421 25 l 474 0 l 575 0 l 575 404 b 342 646 575 506 550 646 b 75 524 228 646 154 613 l 140 453 b 335 553 208 533 258 553 b 474 403 429 553 474 508 l 474 399 b 63 176 160 399 63 335 b 265 -17 63 56 143 -17 z m 279 74 b 164 176 207 74 164 101 b 474 314 164 281 233 314 l 474 218 b 279 74 404 111 347 74 z "},"b":{"ha":767,"x_min":0,"x_max":0,"o":"m 411 646 b 196 550 324 646 249 607 l 196 1042 l 94 1042 l 94 0 l 190 0 l 190 83 b 411 -19 244 24 324 -19 b 704 314 604 -19 704 124 b 411 646 704 504 604 646 z m 603 314 b 401 81 603 178 536 81 b 196 210 308 81 236 133 l 196 415 b 401 547 236 494 310 547 b 603 314 536 547 603 450 z "},"c":{"ha":706,"x_min":0,"x_max":0,"o":"m 582 188 b 389 78 538 122 468 78 b 164 314 258 78 164 185 b 389 551 164 444 258 551 b 582 442 468 551 538 507 l 661 496 b 389 646 599 588 501 646 b 63 314 206 646 63 497 b 389 -17 63 132 206 -17 b 661 133 501 -17 599 42 z "},"d":{"ha":765,"x_min":0,"x_max":0,"o":"m 356 646 b 63 314 161 646 63 504 b 356 -19 63 124 161 -19 b 575 83 443 -19 521 24 l 575 0 l 671 0 l 671 1042 l 569 1042 l 569 550 b 356 646 517 607 443 646 z m 164 314 b 365 547 164 450 229 547 b 569 415 457 547 529 494 l 569 210 b 365 81 529 133 458 81 b 164 314 229 81 164 178 z "},"e":{"ha":767,"x_min":0,"x_max":0,"o":"m 63 314 b 400 -17 63 125 211 -17 b 689 133 517 -17 619 35 b 621 194 689 133 621 194 b 401 79 564 124 489 79 b 164 274 283 79 189 157 l 703 274 b 704 321 703 289 704 306 b 393 646 704 533 579 646 b 63 314 204 646 63 503 z m 393 557 b 608 363 511 557 593 479 l 163 363 b 393 557 182 478 272 557 z "},"f":{"ha":456,"x_min":0,"x_max":0,"o":"m 254 868 b 339 967 254 938 290 967 b 457 932 371 967 407 961 l 485 1022 b 326 1061 428 1054 365 1061 b 153 867 233 1061 153 1008 l 153 628 l 42 628 l 42 535 l 153 535 l 153 0 l 254 0 l 254 533 l 442 533 l 442 628 l 254 628 z "},"g":{"ha":760,"x_min":0,"x_max":0,"o":"m 356 -18 b 571 76 444 -18 517 18 l 571 -24 b 357 -239 571 -174 474 -239 b 140 -143 276 -239 228 -208 l 86 -225 b 357 -333 189 -297 254 -333 b 672 -15 528 -333 672 -235 l 672 628 l 576 628 l 576 543 b 356 647 521 604 446 647 b 63 314 161 647 63 504 b 356 -18 63 124 161 -18 z m 164 314 b 364 547 164 450 229 547 b 571 417 458 547 529 494 l 571 211 b 364 81 529 133 458 81 b 164 314 229 81 164 178 z "},"h":{"ha":740,"x_min":0,"x_max":0,"o":"m 551 0 l 653 0 l 653 392 b 433 646 653 578 568 646 b 196 538 342 646 254 594 l 196 1042 l 94 1042 l 94 0 l 196 0 l 196 415 b 414 544 246 476 329 544 b 551 368 485 544 551 518 z "},"i":{"ha":285,"x_min":0,"x_max":0,"o":"m 92 0 l 193 0 l 193 628 l 92 628 z m 75 876 b 143 810 75 840 107 810 b 210 876 178 810 210 840 b 143 943 210 913 178 943 b 75 876 107 943 75 913 z "},"j":{"ha":285,"x_min":0,"x_max":0,"o":"m 92 -319 l 193 -319 l 193 628 l 92 628 z m 75 876 b 143 810 75 840 107 810 b 210 876 178 810 210 840 b 143 943 210 913 178 943 b 75 876 107 943 75 913 z "},"k":{"ha":638,"x_min":0,"x_max":0,"o":"m 94 0 l 196 0 l 196 278 l 254 278 b 574 -8 364 215 404 -8 b 631 0 593 -8 613 -6 l 631 101 b 592 93 618 96 604 93 b 332 331 483 93 425 292 l 617 628 l 492 628 l 246 372 l 196 372 l 196 1042 l 94 1042 z "},"l":{"ha":290,"x_min":0,"x_max":0,"o":"m 94 1042 l 94 0 l 196 0 l 196 1042 z "},"m":{"ha":1081,"x_min":0,"x_max":0,"o":"m 196 388 b 390 540 239 469 307 540 b 493 386 456 540 493 482 l 493 0 l 594 0 l 594 388 b 788 540 639 471 704 540 b 892 399 854 540 892 494 l 892 0 l 993 0 l 993 415 b 801 646 993 546 933 646 b 575 511 708 646 625 582 b 403 646 561 593 496 646 b 194 532 318 646 243 592 l 194 628 l 94 628 l 94 0 l 196 0 z "},"n":{"ha":740,"x_min":0,"x_max":0,"o":"m 551 0 l 653 0 l 653 392 b 433 646 653 578 568 646 b 196 526 342 646 254 583 l 196 628 l 94 628 l 94 0 l 196 0 l 196 404 b 414 544 246 464 329 544 b 551 368 485 544 551 518 z "},"o":{"ha":772,"x_min":0,"x_max":0,"o":"m 388 551 b 608 314 518 551 608 444 b 388 78 608 185 518 78 b 164 314 258 78 164 185 b 388 551 164 444 258 551 z m 63 314 b 388 -17 63 132 204 -17 b 710 314 571 -17 710 132 b 388 646 710 497 571 646 b 63 314 204 646 63 497 z "},"p":{"ha":764,"x_min":0,"x_max":0,"o":"m 410 -15 b 701 314 603 -15 701 125 b 410 646 701 503 603 646 b 189 543 319 646 244 606 l 189 628 l 94 628 l 94 -325 l 196 -325 l 196 82 b 410 -15 249 22 319 -15 z m 600 314 b 400 81 600 179 535 81 b 196 213 307 81 236 135 l 196 419 b 400 549 236 496 307 549 b 600 314 535 549 600 451 z "},"q":{"ha":765,"x_min":0,"x_max":0,"o":"m 356 -18 b 569 78 443 -18 517 22 l 569 -328 l 671 -328 l 671 628 l 575 628 l 575 546 b 356 647 521 606 443 647 b 63 314 161 647 63 504 b 356 -18 63 124 161 -18 z m 164 314 b 365 547 164 450 229 547 b 569 418 457 547 529 496 l 569 213 b 365 81 529 135 457 81 b 164 314 229 81 164 179 z "},"r":{"ha":463,"x_min":0,"x_max":0,"o":"m 449 628 b 364 646 418 642 390 646 b 196 547 294 646 221 607 l 196 628 l 94 628 l 94 0 l 196 0 l 196 413 b 351 542 228 497 276 542 b 421 528 374 542 396 539 z "},"s":{"ha":572,"x_min":0,"x_max":0,"o":"m 428 178 b 281 72 428 117 367 72 b 96 172 214 72 171 96 l 31 100 b 281 -19 106 17 182 -19 b 525 179 428 -19 525 56 b 165 468 525 431 165 317 b 285 553 165 521 211 553 b 450 463 358 553 407 526 l 518 529 b 285 647 460 610 386 647 b 69 467 154 647 69 576 b 428 178 69 217 428 321 z "},"t":{"ha":471,"x_min":0,"x_max":0,"o":"m 254 533 l 442 533 l 442 628 l 254 628 l 254 842 l 153 842 l 153 628 l 42 628 l 42 535 l 153 535 l 153 224 b 296 -17 153 69 175 -17 b 443 17 342 -17 396 -4 l 443 115 b 314 78 388 89 346 78 b 254 186 267 78 254 113 z "},"u":{"ha":740,"x_min":0,"x_max":0,"o":"m 189 628 l 88 628 l 88 238 b 308 -18 88 50 172 -18 b 544 103 399 -18 486 44 l 544 0 l 646 0 l 646 628 l 544 628 l 544 224 b 326 85 494 164 411 85 b 189 260 256 85 189 111 z "},"v":{"ha":668,"x_min":0,"x_max":0,"o":"m 378 0 l 654 628 l 543 628 l 333 153 l 125 628 l 14 628 l 289 0 z "},"w":{"ha":947,"x_min":0,"x_max":0,"o":"m 515 628 l 432 628 l 274 163 l 119 628 l 14 628 l 229 0 l 315 0 l 474 465 l 632 0 l 718 0 l 933 628 l 828 628 l 674 163 z "},"x":{"ha":672,"x_min":0,"x_max":0,"o":"m 158 628 l 29 628 l 272 321 l 19 0 l 149 0 l 336 246 l 522 0 l 653 0 l 399 321 l 643 628 l 514 628 l 336 393 z "},"y":{"ha":657,"x_min":0,"x_max":0,"o":"m 133 -319 l 243 -319 l 643 628 l 533 628 l 331 142 l 124 628 l 14 628 l 274 10 z "},"z":{"ha":625,"x_min":0,"x_max":0,"o":"m 194 100 l 579 560 l 579 628 l 46 628 l 46 529 l 421 529 l 38 67 l 38 0 l 588 0 l 588 100 z "},"{":{"ha":535,"x_min":0,"x_max":0,"o":"m 206 410 b 301 611 267 450 301 529 l 301 738 b 492 947 301 854 311 899 l 476 1042 b 186 765 233 986 186 917 l 186 611 b 83 457 186 517 153 457 l 49 457 l 49 363 l 83 363 b 186 208 153 363 186 303 l 186 54 b 476 -222 186 -97 233 -167 l 492 -128 b 301 82 311 -79 301 -35 l 301 208 b 206 410 301 290 267 369 z "},"|":{"ha":236,"x_min":0,"x_max":0,"o":"m 69 -178 l 167 -178 l 167 1053 l 69 1053 z "},"}":{"ha":535,"x_min":0,"x_max":0,"o":"m 329 410 b 233 208 268 369 233 290 l 233 82 b 43 -128 233 -35 224 -79 l 58 -222 b 349 54 301 -167 349 -97 l 349 208 b 451 363 349 303 382 363 l 486 363 l 486 457 l 451 457 b 349 611 382 457 349 517 l 349 765 b 58 1042 349 917 301 986 l 43 947 b 233 738 224 899 233 854 l 233 611 b 329 410 233 529 268 450 z "},"~":{"ha":889,"x_min":0,"x_max":0,"o":"m 65 308 b 258 424 144 390 208 424 b 631 326 383 424 499 326 b 825 419 693 326 758 350 l 825 542 b 631 425 744 458 682 425 b 260 522 507 425 392 522 b 65 431 197 522 132 499 z "}," ":{"ha":347,"x_min":0,"x_max":0,"o":""},"¡":{"ha":231,"x_min":0,"x_max":0,"o":"m 157 378 l 68 378 l 49 -351 l 178 -351 z m 193 551 b 115 628 193 594 158 628 b 38 551 74 628 38 594 b 115 474 38 510 74 474 b 193 551 158 474 193 510 z "},"¢":{"ha":706,"x_min":0,"x_max":0,"o":"m 421 829 l 383 646 b 63 314 203 643 63 496 b 256 11 63 179 140 63 l 219 -169 l 311 -185 l 346 -14 b 389 -17 360 -15 374 -17 b 661 133 501 -17 599 42 l 582 188 b 389 78 538 122 468 78 b 364 79 381 78 372 78 l 457 540 b 582 442 507 522 550 488 l 661 496 b 476 633 615 563 551 613 l 513 813 z m 164 314 b 364 550 164 436 246 538 l 275 108 b 164 314 207 149 164 226 z "},"£":{"ha":785,"x_min":0,"x_max":0,"o":"m 58 607 l 58 506 l 144 506 l 144 0 l 710 0 l 710 107 l 260 107 l 260 506 l 589 506 l 589 607 l 260 607 l 260 671 b 449 886 260 818 344 886 b 639 824 522 886 588 861 l 704 910 b 449 993 635 960 550 993 b 144 671 274 993 144 889 l 144 607 z "},"¥":{"ha":833,"x_min":0,"x_max":0,"o":"m 310 432 l 107 432 l 107 332 l 361 332 l 363 331 l 363 232 l 107 232 l 107 132 l 363 132 l 363 0 l 471 0 l 471 132 l 728 132 l 728 232 l 471 232 l 471 331 l 472 332 l 728 332 l 728 432 l 524 432 l 801 972 l 679 972 l 417 461 l 154 972 l 32 972 z "},"§":{"ha":769,"x_min":0,"x_max":0,"o":"m 369 14 b 143 128 293 14 214 40 l 76 49 b 369 -89 150 -49 261 -89 b 654 114 532 -89 654 -10 b 561 251 654 178 618 222 b 726 456 701 293 726 401 b 428 689 726 622 569 657 b 232 800 325 711 232 732 b 399 903 232 872 332 903 b 625 789 475 903 554 876 l 692 868 b 399 1006 618 965 507 1006 b 114 801 236 1006 114 925 b 206 664 114 739 150 693 b 42 461 65 622 42 514 b 340 226 42 293 199 258 b 536 115 443 204 536 183 b 369 14 536 42 436 14 z m 161 461 b 371 589 161 536 228 588 b 607 456 485 574 607 535 b 397 326 607 379 543 328 b 161 461 285 342 161 382 z "},"¨":{"ha":492,"x_min":0,"x_max":0,"o":"m 42 874 b 107 810 42 839 72 810 b 172 874 142 810 172 839 b 107 940 172 910 142 940 b 42 874 72 940 42 910 z m 319 874 b 385 810 319 839 350 810 b 450 874 419 810 450 839 b 385 940 450 910 419 940 b 319 874 350 940 319 910 z "},"©":{"ha":1142,"x_min":0,"x_max":0,"o":"m 69 486 b 571 -21 69 213 289 -21 b 1072 486 853 -21 1072 213 b 571 993 1072 760 853 993 b 69 486 289 993 69 760 z m 289 486 b 576 196 289 326 415 196 b 815 328 675 196 760 247 l 735 382 b 576 292 699 328 640 292 b 390 486 468 292 390 379 b 576 682 390 594 468 682 b 735 592 642 682 699 644 l 815 646 b 576 778 760 726 675 778 b 289 486 415 778 289 647 z m 149 486 b 571 910 149 717 331 910 b 990 486 810 910 990 717 b 571 61 990 254 810 61 b 149 486 331 61 149 254 z "},"ª":{"ha":535,"x_min":0,"x_max":0,"o":"m 224 436 b 389 507 288 436 344 463 l 389 450 l 479 450 l 479 775 b 286 972 479 857 458 972 b 65 871 193 972 132 944 l 124 808 b 281 890 179 874 219 890 b 389 775 353 890 388 856 b 56 594 135 774 56 722 b 224 436 56 496 122 436 z m 235 517 b 146 594 179 517 146 538 b 389 700 146 672 201 700 l 389 629 b 235 517 333 549 288 517 z "},"«":{"ha":747,"x_min":0,"x_max":0,"o":"m 56 328 l 339 0 l 414 67 l 188 328 l 414 589 l 339 656 z m 333 328 l 617 0 l 692 67 l 465 328 l 692 589 l 617 656 z "},"¬":{"ha":794,"x_min":0,"x_max":0,"o":"m 739 443 l 56 443 l 56 354 l 650 354 l 650 106 l 739 106 z "},"­":{"ha":492,"x_min":0,"x_max":0,"o":"m 56 271 l 436 271 l 436 360 l 56 360 z "},"®":{"ha":1142,"x_min":0,"x_max":0,"o":"m 149 486 b 571 910 149 717 331 910 b 990 486 810 910 990 717 b 571 61 990 254 810 61 b 149 486 331 61 149 254 z m 69 486 b 571 -21 69 213 289 -21 b 1072 486 853 -21 1072 213 b 571 993 1072 760 853 993 b 69 486 289 993 69 760 z m 793 583 b 624 763 793 681 733 763 l 367 763 l 367 217 l 468 217 l 468 403 l 549 403 b 764 213 621 338 632 213 b 803 217 775 213 789 214 l 803 306 b 774 299 793 300 782 299 b 656 408 715 299 719 369 b 793 583 750 432 793 486 z m 603 663 b 692 585 672 663 692 626 b 601 500 692 544 671 500 l 468 500 l 468 663 z "},"¯":{"ha":553,"x_min":0,"x_max":0,"o":"m 56 843 l 497 843 l 497 942 l 56 942 z "},"°":{"ha":511,"x_min":0,"x_max":0,"o":"m 254 582 b 479 804 375 582 479 685 b 254 1026 479 922 375 1026 b 29 804 135 1026 29 922 b 254 582 29 685 135 582 z m 254 933 b 383 804 325 933 383 872 b 254 675 383 736 325 675 b 125 804 185 675 125 736 b 254 933 125 872 185 933 z "},"±":{"ha":889,"x_min":0,"x_max":0,"o":"m 825 0 l 825 100 l 65 100 l 65 0 z m 65 403 l 394 403 l 394 144 l 494 144 l 494 403 l 825 403 l 825 503 l 494 503 l 494 761 l 394 761 l 394 503 l 65 503 z "},"´":{"ha":382,"x_min":0,"x_max":0,"o":"m 133 801 l 340 1042 l 190 1042 l 42 801 z "},"¶":{"ha":751,"x_min":0,"x_max":0,"o":"m 594 871 l 594 -222 l 696 -222 l 696 972 l 392 972 b 56 668 168 972 56 821 b 392 364 56 517 168 364 l 392 -222 l 493 -222 l 493 871 z "},"·":{"ha":296,"x_min":0,"x_max":0,"o":"m 69 421 b 147 344 69 378 104 344 b 226 421 190 344 226 378 b 147 499 226 463 190 499 b 69 421 104 499 69 463 z "},"¸":{"ha":407,"x_min":0,"x_max":0,"o":"m 11 -326 b 192 -375 76 -360 144 -375 b 375 -222 328 -375 375 -293 b 219 -79 375 -161 324 -79 l 265 0 l 165 0 l 76 -153 l 135 -193 b 215 -156 160 -164 182 -156 b 292 -222 249 -156 292 -175 b 192 -296 292 -264 254 -296 b 44 -257 154 -296 101 -282 z "},"º":{"ha":649,"x_min":0,"x_max":0,"o":"m 146 704 b 325 883 146 804 225 883 b 503 704 425 883 503 804 b 325 525 503 603 425 525 b 146 704 225 525 146 603 z m 56 704 b 325 435 56 554 175 435 b 593 704 475 435 593 554 b 325 972 593 853 475 972 b 56 704 175 972 56 853 z "},"»":{"ha":747,"x_min":0,"x_max":0,"o":"m 692 328 l 408 656 l 333 589 l 560 328 l 333 67 l 408 0 z m 414 328 l 131 656 l 56 589 l 282 328 l 56 67 l 131 0 z "},"¿":{"ha":714,"x_min":0,"x_max":0,"o":"m 336 329 b 42 -115 336 85 42 144 b 343 -372 42 -279 151 -372 b 664 -193 503 -372 594 -311 l 581 -132 b 351 -272 513 -240 440 -272 b 150 -115 249 -272 150 -228 b 429 286 150 65 429 39 l 429 378 l 336 378 z m 461 551 b 383 628 461 594 426 628 b 304 551 340 628 304 594 b 383 474 304 510 340 474 b 461 551 426 474 461 510 z "},"À":{"ha":904,"x_min":0,"x_max":0,"o":"m 149 0 l 263 281 l 640 281 l 756 0 l 876 0 l 469 972 l 435 972 l 28 0 z m 451 743 l 596 389 l 307 389 z m 510 1079 l 601 1079 l 453 1319 l 303 1319 z "},"Á":{"ha":904,"x_min":0,"x_max":0,"o":"m 149 0 l 263 281 l 640 281 l 756 0 l 876 0 l 469 972 l 435 972 l 28 0 z m 451 743 l 596 389 l 307 389 z m 394 1079 l 601 1319 l 451 1319 l 303 1079 z "},"Â":{"ha":904,"x_min":0,"x_max":0,"o":"m 149 0 l 263 281 l 640 281 l 756 0 l 876 0 l 469 972 l 435 972 l 28 0 z m 451 743 l 596 389 l 307 389 z m 321 1079 l 453 1232 l 585 1079 l 676 1079 l 528 1319 l 378 1319 l 229 1079 z "},"Ã":{"ha":904,"x_min":0,"x_max":0,"o":"m 149 0 l 263 281 l 640 281 l 756 0 l 876 0 l 469 972 l 435 972 l 28 0 z m 451 743 l 596 389 l 307 389 z m 354 1181 b 550 1076 399 1181 451 1076 b 721 1246 626 1076 681 1129 l 631 1285 b 550 1175 607 1214 585 1175 b 354 1279 485 1175 442 1279 b 183 1110 278 1279 224 1226 l 274 1071 b 354 1181 297 1142 319 1181 z "},"Ä":{"ha":904,"x_min":0,"x_max":0,"o":"m 149 0 l 263 281 l 640 281 l 756 0 l 876 0 l 469 972 l 435 972 l 28 0 z m 451 743 l 596 389 l 307 389 z m 249 1151 b 314 1088 249 1117 279 1088 b 379 1151 349 1088 379 1117 b 314 1218 379 1188 349 1218 b 249 1151 279 1218 249 1188 z m 526 1151 b 592 1088 526 1117 557 1088 b 657 1151 626 1088 657 1117 b 592 1218 657 1188 626 1218 b 526 1151 557 1218 526 1188 z "},"Å":{"ha":904,"x_min":0,"x_max":0,"o":"m 149 0 l 263 281 l 640 281 l 756 0 l 876 0 l 469 972 l 435 972 l 28 0 z m 451 743 l 596 389 l 307 389 z m 626 1175 b 453 1347 626 1276 551 1347 b 279 1175 354 1347 279 1276 b 453 1003 279 1074 354 1003 b 626 1175 551 1003 626 1074 z m 543 1175 b 453 1085 543 1124 504 1085 b 363 1175 401 1085 363 1124 b 453 1265 363 1226 401 1265 b 543 1175 504 1265 543 1226 z "},"Æ":{"ha":1251,"x_min":0,"x_max":0,"o":"m 149 0 l 264 283 l 639 283 l 756 0 l 1210 0 l 1210 106 l 832 106 l 688 453 l 1175 453 l 1175 558 l 643 558 l 514 867 l 1210 867 l 1210 972 l 435 972 l 28 0 z m 451 742 l 596 389 l 307 389 z "},"Ç":{"ha":1067,"x_min":0,"x_max":0,"o":"m 346 -326 b 526 -375 411 -360 479 -375 b 710 -222 663 -375 710 -293 b 554 -79 710 -161 658 -79 l 588 -21 l 590 -21 b 1004 194 761 -21 913 64 l 918 256 b 590 85 847 153 729 85 b 193 486 364 85 193 264 b 590 888 193 708 364 888 b 918 717 729 888 847 819 l 1004 778 b 590 993 913 908 761 993 b 83 486 310 993 83 767 b 493 -11 83 239 258 33 l 411 -153 l 469 -193 b 550 -156 494 -164 517 -156 b 626 -222 583 -156 626 -175 b 526 -296 626 -264 589 -296 b 379 -257 489 -296 436 -282 z "},"È":{"ha":628,"x_min":0,"x_max":0,"o":"m 586 106 l 213 106 l 213 453 l 551 453 l 551 558 l 213 558 l 213 867 l 586 867 l 586 972 l 104 972 l 104 0 l 586 0 z m 379 1079 l 471 1079 l 322 1319 l 172 1319 z "},"É":{"ha":628,"x_min":0,"x_max":0,"o":"m 586 106 l 213 106 l 213 453 l 551 453 l 551 558 l 213 558 l 213 867 l 586 867 l 586 972 l 104 972 l 104 0 l 586 0 z m 347 1079 l 554 1319 l 404 1319 l 256 1079 z "},"Ê":{"ha":628,"x_min":0,"x_max":0,"o":"m 586 106 l 213 106 l 213 453 l 551 453 l 551 558 l 213 558 l 213 867 l 586 867 l 586 972 l 104 972 l 104 0 l 586 0 z m 189 1079 l 321 1232 l 453 1079 l 544 1079 l 396 1319 l 246 1319 l 97 1079 z "},"Ë":{"ha":628,"x_min":0,"x_max":0,"o":"m 586 106 l 213 106 l 213 453 l 551 453 l 551 558 l 213 558 l 213 867 l 586 867 l 586 972 l 104 972 l 104 0 l 586 0 z m 117 1151 b 182 1088 117 1117 147 1088 b 247 1151 217 1088 247 1117 b 182 1218 247 1188 217 1218 b 117 1151 147 1218 117 1188 z m 394 1151 b 460 1088 394 1117 425 1088 b 525 1151 494 1088 525 1117 b 460 1218 525 1188 494 1218 b 394 1151 425 1218 394 1188 z "},"Ì":{"ha":317,"x_min":0,"x_max":0,"o":"m 213 972 l 104 972 l 104 0 l 213 0 z m 215 1079 l 307 1079 l 158 1319 l 8 1319 z "},"Í":{"ha":317,"x_min":0,"x_max":0,"o":"m 213 972 l 104 972 l 104 0 l 213 0 z m 100 1079 l 307 1319 l 157 1319 l 8 1079 z "},"Î":{"ha":317,"x_min":0,"x_max":0,"o":"m 213 972 l 104 972 l 104 0 l 213 0 z m 54 1079 l 160 1232 l 265 1079 l 339 1079 l 219 1319 l 100 1319 l -19 1079 z "},"Ï":{"ha":317,"x_min":0,"x_max":0,"o":"m 213 972 l 104 972 l 104 0 l 213 0 z m -46 1151 b 19 1088 -46 1117 -15 1088 b 85 1151 54 1088 85 1117 b 19 1218 85 1188 54 1218 b -46 1151 -15 1218 -46 1188 z m 232 1151 b 297 1088 232 1117 263 1088 b 363 1151 332 1088 363 1117 b 297 1218 363 1188 332 1218 b 232 1151 263 1218 232 1188 z "},"Ð":{"ha":960,"x_min":0,"x_max":0,"o":"m 0 558 l 0 453 l 104 453 l 104 0 l 400 0 b 897 486 679 0 897 206 b 400 972 897 767 679 972 l 104 972 l 104 558 z m 213 558 l 213 867 l 400 867 b 788 486 626 867 788 708 b 400 106 788 264 626 106 l 213 106 l 213 453 l 515 453 l 515 558 z "},"Ñ":{"ha":1019,"x_min":0,"x_max":0,"o":"m 213 972 l 104 972 l 104 0 l 213 0 l 213 783 l 807 0 l 915 0 l 915 972 l 807 972 l 807 188 z m 413 1181 b 608 1076 457 1181 510 1076 b 779 1246 685 1076 739 1129 l 689 1285 b 608 1175 665 1214 643 1175 b 413 1279 543 1175 500 1279 b 242 1110 336 1279 282 1226 l 332 1071 b 413 1181 356 1142 378 1181 z "},"Ò":{"ha":1161,"x_min":0,"x_max":0,"o":"m 193 486 b 581 888 193 708 354 888 b 968 486 807 888 968 708 b 581 85 968 264 807 85 b 193 486 354 85 193 264 z m 83 486 b 581 -21 83 206 300 -21 b 1078 486 860 -21 1078 206 b 581 993 1078 767 860 993 b 83 486 300 993 83 767 z m 639 1079 l 731 1079 l 582 1319 l 432 1319 z "},"Ó":{"ha":1161,"x_min":0,"x_max":0,"o":"m 193 486 b 581 888 193 708 354 888 b 968 486 807 888 968 708 b 581 85 968 264 807 85 b 193 486 354 85 193 264 z m 83 486 b 581 -21 83 206 300 -21 b 1078 486 860 -21 1078 206 b 581 993 1078 767 860 993 b 83 486 300 993 83 767 z m 524 1079 l 731 1319 l 581 1319 l 432 1079 z "},"Ô":{"ha":1161,"x_min":0,"x_max":0,"o":"m 193 486 b 581 888 193 708 354 888 b 968 486 807 888 968 708 b 581 85 968 264 807 85 b 193 486 354 85 193 264 z m 83 486 b 581 -21 83 206 300 -21 b 1078 486 860 -21 1078 206 b 581 993 1078 767 860 993 b 83 486 300 993 83 767 z m 449 1079 l 581 1232 l 713 1079 l 804 1079 l 656 1319 l 506 1319 l 357 1079 z "},"Õ":{"ha":1161,"x_min":0,"x_max":0,"o":"m 193 486 b 581 888 193 708 354 888 b 968 486 807 888 968 708 b 581 85 968 264 807 85 b 193 486 354 85 193 264 z m 83 486 b 581 -21 83 206 300 -21 b 1078 486 860 -21 1078 206 b 581 993 1078 767 860 993 b 83 486 300 993 83 767 z m 483 1181 b 679 1076 528 1181 581 1076 b 850 1246 756 1076 810 1129 l 760 1285 b 679 1175 736 1214 714 1175 b 483 1279 614 1175 571 1279 b 313 1110 407 1279 353 1226 l 403 1071 b 483 1181 426 1142 449 1181 z "},"Ö":{"ha":1161,"x_min":0,"x_max":0,"o":"m 193 486 b 581 888 193 708 354 888 b 968 486 807 888 968 708 b 581 85 968 264 807 85 b 193 486 354 85 193 264 z m 83 486 b 581 -21 83 206 300 -21 b 1078 486 860 -21 1078 206 b 581 993 1078 767 860 993 b 83 486 300 993 83 767 z m 376 1151 b 442 1088 376 1117 407 1088 b 507 1151 476 1088 507 1117 b 442 1218 507 1188 476 1218 b 376 1151 407 1218 376 1188 z m 654 1151 b 719 1088 654 1117 685 1088 b 785 1151 754 1088 785 1117 b 719 1218 785 1188 754 1218 b 654 1151 685 1218 654 1188 z "},"×":{"ha":889,"x_min":0,"x_max":0,"o":"m 163 44 l 444 326 l 725 46 l 796 115 l 515 397 l 799 679 l 728 750 l 444 468 l 164 749 l 93 678 l 374 397 l 92 115 z "},"Ø":{"ha":1161,"x_min":0,"x_max":0,"o":"m 83 486 b 211 143 83 354 131 233 l 83 0 l 207 0 l 279 81 b 581 -21 361 17 465 -21 b 1078 486 860 -21 1078 206 b 949 828 1078 618 1029 738 l 1078 972 l 953 972 l 881 892 b 581 993 797 954 694 993 b 83 486 300 993 83 767 z m 968 486 b 581 85 968 264 807 85 b 350 160 492 85 413 113 l 878 749 b 968 486 935 678 968 586 z m 193 486 b 581 888 193 708 354 888 b 810 813 669 888 747 860 l 283 224 b 193 486 226 293 193 385 z "},"Ù":{"ha":1019,"x_min":0,"x_max":0,"o":"m 922 972 l 814 972 l 814 386 b 510 85 814 203 679 85 b 206 386 340 85 206 203 l 206 972 l 97 972 l 97 386 b 510 -21 97 146 268 -21 b 922 386 751 -21 922 146 z m 513 1079 l 604 1079 l 456 1319 l 306 1319 z "},"Ú":{"ha":1019,"x_min":0,"x_max":0,"o":"m 922 972 l 814 972 l 814 386 b 510 85 814 203 679 85 b 206 386 340 85 206 203 l 206 972 l 97 972 l 97 386 b 510 -21 97 146 268 -21 b 922 386 751 -21 922 146 z m 508 1079 l 715 1319 l 565 1319 l 417 1079 z "},"Û":{"ha":1019,"x_min":0,"x_max":0,"o":"m 922 972 l 814 972 l 814 386 b 510 85 814 203 679 85 b 206 386 340 85 206 203 l 206 972 l 97 972 l 97 386 b 510 -21 97 146 268 -21 b 922 386 751 -21 922 146 z m 378 1079 l 510 1232 l 642 1079 l 733 1079 l 585 1319 l 435 1319 l 286 1079 z "},"Ü":{"ha":1019,"x_min":0,"x_max":0,"o":"m 922 972 l 814 972 l 814 386 b 510 85 814 203 679 85 b 206 386 340 85 206 203 l 206 972 l 97 972 l 97 386 b 510 -21 97 146 268 -21 b 922 386 751 -21 922 146 z m 306 1151 b 371 1088 306 1117 336 1088 b 436 1151 406 1088 436 1117 b 371 1218 436 1188 406 1218 b 306 1151 336 1218 306 1188 z m 583 1151 b 649 1088 583 1117 614 1088 b 714 1151 683 1088 714 1117 b 649 1218 714 1188 683 1218 b 583 1151 614 1218 583 1188 z "},"Ý":{"ha":797,"x_min":0,"x_max":0,"o":"m 344 331 l 344 0 l 453 0 l 453 331 l 783 972 l 661 972 l 399 461 l 136 972 l 14 972 z m 439 1079 l 646 1319 l 496 1319 l 347 1079 z "},"Þ":{"ha":722,"x_min":0,"x_max":0,"o":"m 213 833 l 213 1000 l 104 1000 l 104 0 l 213 0 l 213 225 l 369 225 b 681 531 543 225 681 363 b 369 833 681 699 543 833 z m 358 728 b 572 531 476 728 572 644 b 358 331 572 417 476 331 l 213 331 l 213 728 z "},"ß":{"ha":761,"x_min":0,"x_max":0,"o":"m 58 0 l 160 0 l 160 619 b 354 892 160 782 207 892 b 542 736 479 892 542 832 b 286 556 542 590 410 556 l 286 454 b 613 256 456 454 613 404 b 450 81 613 128 525 81 b 264 158 381 81 318 117 l 207 74 b 444 -21 282 14 357 -21 b 714 256 576 -21 714 61 b 481 517 714 392 628 489 b 643 736 592 561 643 633 b 354 993 643 882 547 993 b 58 621 144 993 58 839 z "},"à":{"ha":663,"x_min":0,"x_max":0,"o":"m 265 -17 b 474 97 347 -17 421 25 l 474 0 l 575 0 l 575 404 b 342 646 575 506 550 646 b 75 524 228 646 154 613 l 140 453 b 335 553 208 533 258 553 b 474 403 429 553 474 508 l 474 399 b 63 176 160 399 63 335 b 265 -17 63 56 143 -17 z m 279 74 b 164 176 207 74 164 101 b 474 314 164 281 233 314 l 474 218 b 279 74 404 111 347 74 z m 326 801 l 418 801 l 269 1042 l 119 1042 z "},"á":{"ha":663,"x_min":0,"x_max":0,"o":"m 265 -17 b 474 97 347 -17 421 25 l 474 0 l 575 0 l 575 404 b 342 646 575 506 550 646 b 75 524 228 646 154 613 l 140 453 b 335 553 208 533 258 553 b 474 403 429 553 474 508 l 474 399 b 63 176 160 399 63 335 b 265 -17 63 56 143 -17 z m 279 74 b 164 176 207 74 164 101 b 474 314 164 281 233 314 l 474 218 b 279 74 404 111 347 74 z m 274 801 l 481 1042 l 331 1042 l 182 801 z "},"â":{"ha":663,"x_min":0,"x_max":0,"o":"m 265 -17 b 474 97 347 -17 421 25 l 474 0 l 575 0 l 575 404 b 342 646 575 506 550 646 b 75 524 228 646 154 613 l 140 453 b 335 553 208 533 258 553 b 474 403 429 553 474 508 l 474 399 b 63 176 160 399 63 335 b 265 -17 63 56 143 -17 z m 279 74 b 164 176 207 74 164 101 b 474 314 164 281 233 314 l 474 218 b 279 74 404 111 347 74 z m 199 801 l 331 954 l 463 801 l 554 801 l 406 1042 l 256 1042 l 107 801 z "},"ã":{"ha":663,"x_min":0,"x_max":0,"o":"m 265 -17 b 474 97 347 -17 421 25 l 474 0 l 575 0 l 575 404 b 342 646 575 506 550 646 b 75 524 228 646 154 613 l 140 453 b 335 553 208 533 258 553 b 474 403 429 553 474 508 l 474 399 b 63 176 160 399 63 335 b 265 -17 63 56 143 -17 z m 279 74 b 164 176 207 74 164 101 b 474 314 164 281 233 314 l 474 218 b 279 74 404 111 347 74 z m 233 903 b 429 799 278 903 331 799 b 600 968 506 799 560 851 l 510 1007 b 429 897 486 936 464 897 b 233 1001 364 897 321 1001 b 63 832 157 1001 103 949 l 153 793 b 233 903 176 864 199 903 z "},"ä":{"ha":663,"x_min":0,"x_max":0,"o":"m 265 -17 b 474 97 347 -17 421 25 l 474 0 l 575 0 l 575 404 b 342 646 575 506 550 646 b 75 524 228 646 154 613 l 140 453 b 335 553 208 533 258 553 b 474 403 429 553 474 508 l 474 399 b 63 176 160 399 63 335 b 265 -17 63 56 143 -17 z m 279 74 b 164 176 207 74 164 101 b 474 314 164 281 233 314 l 474 218 b 279 74 404 111 347 74 z m 126 874 b 192 810 126 839 157 810 b 257 874 226 810 257 839 b 192 940 257 910 226 940 b 126 874 157 940 126 910 z m 404 874 b 469 810 404 839 435 810 b 535 874 504 810 535 839 b 469 940 535 910 504 940 b 404 874 435 940 404 910 z "},"å":{"ha":663,"x_min":0,"x_max":0,"o":"m 265 -17 b 474 97 347 -17 421 25 l 474 0 l 575 0 l 575 404 b 342 646 575 506 550 646 b 75 524 228 646 154 613 l 140 453 b 335 553 208 533 258 553 b 474 403 429 553 474 508 l 474 399 b 63 176 160 399 63 335 b 265 -17 63 56 143 -17 z m 279 74 b 164 176 207 74 164 101 b 474 314 164 281 233 314 l 474 218 b 279 74 404 111 347 74 z m 504 897 b 331 1069 504 999 429 1069 b 157 897 232 1069 157 999 b 331 725 157 796 232 725 b 504 897 429 725 504 796 z m 421 897 b 331 807 421 846 382 807 b 240 897 279 807 240 846 b 331 988 240 949 279 988 b 421 897 382 988 421 949 z "},"æ":{"ha":1178,"x_min":0,"x_max":0,"o":"m 279 74 b 164 176 207 74 164 101 b 474 290 164 281 233 290 l 474 218 b 279 74 404 111 347 74 z m 804 557 b 1019 379 922 557 1004 489 l 575 379 b 804 557 597 490 686 557 z m 522 140 b 811 -17 581 46 688 -17 b 1100 133 928 -17 1031 35 l 1032 194 b 813 79 975 124 900 79 b 575 290 694 79 600 174 l 1114 290 b 1115 338 1114 306 1115 322 b 804 646 1115 536 990 646 b 553 533 701 646 613 603 b 342 646 525 596 467 646 b 75 524 228 646 154 613 l 140 453 b 335 553 208 533 258 553 b 474 403 429 553 474 508 l 474 379 b 63 176 160 379 63 335 b 265 -17 63 56 143 -17 b 522 140 390 -17 461 44 z "},"ç":{"ha":706,"x_min":0,"x_max":0,"o":"m 165 -326 b 346 -375 231 -360 299 -375 b 529 -222 482 -375 529 -293 b 374 -79 529 -161 478 -79 l 410 -15 b 661 133 514 -8 603 47 l 582 188 b 389 78 538 122 468 78 b 164 314 258 78 164 185 b 389 551 164 444 258 551 b 582 442 468 551 538 507 l 661 496 b 389 646 599 588 501 646 b 63 314 206 646 63 497 b 314 -8 63 157 168 25 l 231 -153 l 289 -193 b 369 -156 314 -164 336 -156 b 446 -222 403 -156 446 -175 b 346 -296 446 -264 408 -296 b 199 -257 308 -296 256 -282 z "},"è":{"ha":767,"x_min":0,"x_max":0,"o":"m 63 314 b 400 -17 63 125 211 -17 b 689 133 517 -17 619 35 l 621 194 b 401 79 564 124 489 79 b 164 274 283 79 189 157 l 703 274 b 704 321 703 289 704 306 b 393 646 704 533 579 646 b 63 314 204 646 63 503 z m 393 557 b 608 363 511 557 593 479 l 163 363 b 393 557 182 478 272 557 z m 440 801 l 532 801 l 383 1042 l 233 1042 z "},"é":{"ha":767,"x_min":0,"x_max":0,"o":"m 63 314 b 400 -17 63 125 211 -17 b 689 133 517 -17 619 35 l 621 194 b 401 79 564 124 489 79 b 164 274 283 79 189 157 l 703 274 b 704 321 703 289 704 306 b 393 646 704 533 579 646 b 63 314 204 646 63 503 z m 393 557 b 608 363 511 557 593 479 l 163 363 b 393 557 182 478 272 557 z m 422 801 l 629 1042 l 479 1042 l 331 801 z "},"ê":{"ha":767,"x_min":0,"x_max":0,"o":"m 63 314 b 400 -17 63 125 211 -17 b 689 133 517 -17 619 35 l 621 194 b 401 79 564 124 489 79 b 164 274 283 79 189 157 l 703 274 b 704 321 703 289 704 306 b 393 646 704 533 579 646 b 63 314 204 646 63 503 z m 393 557 b 608 363 511 557 593 479 l 163 363 b 393 557 182 478 272 557 z m 251 801 l 383 954 l 515 801 l 607 801 l 458 1042 l 308 1042 l 160 801 z "},"ë":{"ha":767,"x_min":0,"x_max":0,"o":"m 63 314 b 400 -17 63 125 211 -17 b 689 133 517 -17 619 35 l 621 194 b 401 79 564 124 489 79 b 164 274 283 79 189 157 l 703 274 b 704 321 703 289 704 306 b 393 646 704 533 579 646 b 63 314 204 646 63 503 z m 393 557 b 608 363 511 557 593 479 l 163 363 b 393 557 182 478 272 557 z m 179 874 b 244 810 179 839 210 810 b 310 874 279 810 310 839 b 244 940 310 910 279 940 b 179 874 210 940 179 910 z m 457 874 b 522 810 457 839 488 810 b 588 874 557 810 588 839 b 522 940 588 910 557 940 b 457 874 488 940 457 910 z "},"ì":{"ha":285,"x_min":0,"x_max":0,"o":"m 92 0 l 193 0 l 193 628 l 92 628 z m 194 801 l 276 801 l 143 1042 l 8 1042 z "},"í":{"ha":285,"x_min":0,"x_max":0,"o":"m 92 0 l 193 0 l 193 628 l 92 628 z m 90 801 l 276 1042 l 142 1042 l 8 801 z "},"î":{"ha":285,"x_min":0,"x_max":0,"o":"m 92 0 l 193 0 l 193 628 l 92 628 z m 38 801 l 143 954 l 249 801 l 322 801 l 203 1042 l 83 1042 l -36 801 z "},"ï":{"ha":285,"x_min":0,"x_max":0,"o":"m 92 0 l 193 0 l 193 628 l 92 628 z m -61 874 b 4 810 -61 839 -31 810 b 69 874 39 810 69 839 b 4 940 69 910 39 940 b -61 874 -31 940 -61 910 z m 217 874 b 282 810 217 839 247 810 b 347 874 317 810 347 839 b 282 940 347 910 317 940 b 217 874 247 940 217 910 z "},"ð":{"ha":758,"x_min":0,"x_max":0,"o":"m 365 -19 b 694 343 579 -19 694 135 b 278 969 694 826 547 907 l 306 1065 l 229 1085 l 200 986 l 125 1003 l 97 907 l 172 889 l 140 781 l 217 761 l 249 872 b 599 510 440 828 579 775 b 363 631 543 585 463 631 b 63 314 163 631 63 496 b 365 -19 63 121 169 -19 z m 164 308 b 365 539 164 442 233 539 b 593 308 499 539 593 442 b 365 76 593 172 499 76 b 164 308 233 76 164 172 z "},"ñ":{"ha":740,"x_min":0,"x_max":0,"o":"m 551 0 l 653 0 l 653 392 b 433 646 653 578 568 646 b 196 526 342 646 254 583 l 196 628 l 94 628 l 94 0 l 196 0 l 196 404 b 414 544 246 464 329 544 b 551 368 485 544 551 518 z m 272 903 b 468 799 317 903 369 799 b 639 968 544 799 599 851 l 549 1007 b 468 897 525 936 503 897 b 272 1001 403 897 360 1001 b 101 832 196 1001 142 949 l 192 793 b 272 903 215 864 238 903 z "},"ò":{"ha":772,"x_min":0,"x_max":0,"o":"m 388 551 b 608 314 518 551 608 444 b 388 78 608 185 518 78 b 164 314 258 78 164 185 b 388 551 164 444 258 551 z m 63 314 b 388 -17 63 132 204 -17 b 710 314 571 -17 710 132 b 388 646 710 497 571 646 b 63 314 204 646 63 497 z m 443 801 l 535 801 l 386 1042 l 236 1042 z "},"ó":{"ha":772,"x_min":0,"x_max":0,"o":"m 388 551 b 608 314 518 551 608 444 b 388 78 608 185 518 78 b 164 314 258 78 164 185 b 388 551 164 444 258 551 z m 63 314 b 388 -17 63 132 204 -17 b 710 314 571 -17 710 132 b 388 646 710 497 571 646 b 63 314 204 646 63 497 z m 397 801 l 604 1042 l 454 1042 l 306 801 z "},"ô":{"ha":772,"x_min":0,"x_max":0,"o":"m 388 551 b 608 314 518 551 608 444 b 388 78 608 185 518 78 b 164 314 258 78 164 185 b 388 551 164 444 258 551 z m 63 314 b 388 -17 63 132 204 -17 b 710 314 571 -17 710 132 b 388 646 710 497 571 646 b 63 314 204 646 63 497 z m 254 801 l 386 954 l 518 801 l 610 801 l 461 1042 l 311 1042 l 163 801 z "},"õ":{"ha":772,"x_min":0,"x_max":0,"o":"m 388 551 b 608 314 518 551 608 444 b 388 78 608 185 518 78 b 164 314 258 78 164 185 b 388 551 164 444 258 551 z m 63 314 b 388 -17 63 132 204 -17 b 710 314 571 -17 710 132 b 388 646 710 497 571 646 b 63 314 204 646 63 497 z m 288 903 b 483 799 332 903 385 799 b 654 968 560 799 614 851 l 564 1007 b 483 897 540 936 518 897 b 288 1001 418 897 375 1001 b 117 832 211 1001 157 949 l 207 793 b 288 903 231 864 253 903 z "},"ö":{"ha":772,"x_min":0,"x_max":0,"o":"m 388 551 b 608 314 518 551 608 444 b 388 78 608 185 518 78 b 164 314 258 78 164 185 b 388 551 164 444 258 551 z m 63 314 b 388 -17 63 132 204 -17 b 710 314 571 -17 710 132 b 388 646 710 497 571 646 b 63 314 204 646 63 497 z m 182 874 b 247 810 182 839 213 810 b 313 874 282 810 313 839 b 247 940 313 910 282 940 b 182 874 213 940 182 910 z m 460 874 b 525 810 460 839 490 810 b 590 874 560 810 590 839 b 525 940 590 910 560 940 b 460 874 490 940 460 910 z "},"÷":{"ha":889,"x_min":0,"x_max":0,"o":"m 65 347 l 825 347 l 825 447 l 65 447 z m 365 181 b 443 104 365 138 400 104 b 522 181 486 104 522 138 b 443 258 522 222 486 258 b 365 181 400 258 365 222 z m 365 614 b 443 536 365 572 400 536 b 522 614 486 536 522 572 b 443 690 522 657 486 690 b 365 614 400 690 365 657 z "},"ø":{"ha":772,"x_min":0,"x_max":0,"o":"m 63 314 b 143 94 63 229 93 153 l 63 0 l 172 0 l 206 39 b 388 -17 257 4 319 -17 b 710 314 571 -17 710 132 b 629 535 710 399 679 476 l 710 628 l 599 628 l 567 590 b 388 646 517 625 454 646 b 63 314 204 646 63 497 z m 608 314 b 388 78 608 185 518 78 b 268 113 343 78 303 90 l 565 458 b 608 314 593 418 608 368 z m 388 551 b 504 518 432 551 471 539 l 208 171 b 164 314 179 210 164 260 b 388 551 164 444 258 551 z "},"ù":{"ha":740,"x_min":0,"x_max":0,"o":"m 189 628 l 88 628 l 88 238 b 308 -18 88 50 172 -18 b 544 103 399 -18 486 44 l 544 0 l 646 0 l 646 628 l 544 628 l 544 224 b 326 85 494 164 411 85 b 189 260 256 85 189 111 z m 428 801 l 519 801 l 371 1042 l 221 1042 z "},"ú":{"ha":740,"x_min":0,"x_max":0,"o":"m 189 628 l 88 628 l 88 238 b 308 -18 88 50 172 -18 b 544 103 399 -18 486 44 l 544 0 l 646 0 l 646 628 l 544 628 l 544 224 b 326 85 494 164 411 85 b 189 260 256 85 189 111 z m 313 801 l 519 1042 l 369 1042 l 221 801 z "},"û":{"ha":740,"x_min":0,"x_max":0,"o":"m 189 628 l 88 628 l 88 238 b 308 -18 88 50 172 -18 b 544 103 399 -18 486 44 l 544 0 l 646 0 l 646 628 l 544 628 l 544 224 b 326 85 494 164 411 85 b 189 260 256 85 189 111 z m 238 801 l 369 954 l 501 801 l 593 801 l 444 1042 l 294 1042 l 146 801 z "},"ü":{"ha":740,"x_min":0,"x_max":0,"o":"m 189 628 l 88 628 l 88 238 b 308 -18 88 50 172 -18 b 544 103 399 -18 486 44 l 544 0 l 646 0 l 646 628 l 544 628 l 544 224 b 326 85 494 164 411 85 b 189 260 256 85 189 111 z m 165 874 b 231 810 165 839 196 810 b 296 874 265 810 296 839 b 231 940 296 910 265 940 b 165 874 196 940 165 910 z m 443 874 b 508 810 443 839 474 810 b 574 874 543 810 574 839 b 508 940 574 910 543 940 b 443 874 474 940 443 910 z "},"ý":{"ha":657,"x_min":0,"x_max":0,"o":"m 133 -319 l 243 -319 l 643 628 l 533 628 l 331 142 l 124 628 l 14 628 l 274 10 z m 340 801 l 547 1042 l 397 1042 l 249 801 z "},"þ":{"ha":767,"x_min":0,"x_max":0,"o":"m 411 646 b 196 550 324 646 249 607 l 196 1042 l 94 1042 l 94 -325 l 190 -325 l 190 83 b 411 -19 244 24 324 -19 b 704 314 604 -19 704 124 b 411 646 704 504 604 646 z m 603 314 b 401 81 603 178 536 81 b 196 210 308 81 236 133 l 196 415 b 401 547 236 494 310 547 b 603 314 536 547 603 450 z "},"ÿ":{"ha":657,"x_min":0,"x_max":0,"o":"m 133 -319 l 243 -319 l 643 628 l 533 628 l 331 142 l 124 628 l 14 628 l 274 10 z m 124 874 b 189 810 124 839 154 810 b 254 874 224 810 254 839 b 189 940 254 910 224 940 b 124 874 154 940 124 910 z m 401 874 b 467 810 401 839 432 810 b 532 874 501 810 532 839 b 467 940 532 910 501 940 b 401 874 432 940 401 910 z "},"Ā":{"ha":904,"x_min":0,"x_max":0,"o":"m 149 0 l 263 281 l 640 281 l 756 0 l 876 0 l 469 972 l 435 972 l 28 0 z m 451 743 l 596 389 l 307 389 z m 232 1121 l 674 1121 l 674 1219 l 232 1219 z "},"ā":{"ha":663,"x_min":0,"x_max":0,"o":"m 265 -17 b 474 97 347 -17 421 25 l 474 0 l 575 0 l 575 404 b 342 646 575 506 550 646 b 75 524 228 646 154 613 l 140 453 b 335 553 208 533 258 553 b 474 403 429 553 474 508 l 474 399 b 63 176 160 399 63 335 b 265 -17 63 56 143 -17 z m 279 74 b 164 176 207 74 164 101 b 474 314 164 281 233 314 l 474 218 b 279 74 404 111 347 74 z m 110 843 l 551 843 l 551 942 l 110 942 z "},"Ą":{"ha":904,"x_min":0,"x_max":0,"o":"m 149 0 l 263 281 l 640 281 l 747 18 b 592 -140 663 -10 592 -64 b 778 -294 592 -240 681 -294 b 875 -279 800 -294 832 -289 l 875 -192 b 778 -210 832 -206 793 -210 b 690 -140 733 -210 690 -190 b 876 0 690 -82 761 -29 l 469 972 l 435 972 l 28 0 z m 451 743 l 596 389 l 307 389 z "},"ą":{"ha":663,"x_min":0,"x_max":0,"o":"m 265 -17 b 474 97 347 -17 421 25 l 474 26 b 290 -140 378 0 290 -56 b 476 -294 290 -240 379 -294 b 574 -279 499 -294 531 -289 l 574 -192 b 476 -210 531 -206 492 -210 b 389 -140 432 -210 389 -190 b 575 0 389 -82 460 -29 l 575 404 b 342 646 575 506 550 646 b 75 524 228 646 154 613 l 140 453 b 335 553 208 533 258 553 b 474 403 429 553 474 508 l 474 399 b 63 176 160 399 63 335 b 265 -17 63 56 143 -17 z m 279 74 b 164 176 207 74 164 101 b 474 314 164 281 233 314 l 474 218 b 279 74 404 111 347 74 z "},"Ć":{"ha":1067,"x_min":0,"x_max":0,"o":"m 590 -21 b 1004 194 761 -21 913 64 l 918 256 b 590 85 847 153 729 85 b 193 486 364 85 193 264 b 590 888 193 708 364 888 b 918 717 729 888 847 819 l 1004 778 b 590 993 913 908 761 993 b 83 486 310 993 83 767 b 590 -21 83 206 310 -21 z m 572 1079 l 779 1319 l 629 1319 l 481 1079 z "},"ć":{"ha":706,"x_min":0,"x_max":0,"o":"m 582 188 b 389 78 538 122 468 78 b 164 314 258 78 164 185 b 389 551 164 444 258 551 b 582 442 468 551 538 507 l 661 496 b 389 646 599 588 501 646 b 63 314 206 646 63 497 b 389 -17 63 132 206 -17 b 661 133 501 -17 599 42 z m 419 801 l 626 1042 l 476 1042 l 328 801 z "},"Č":{"ha":1067,"x_min":0,"x_max":0,"o":"m 590 -21 b 1004 194 761 -21 913 64 l 918 256 b 590 85 847 153 729 85 b 193 486 364 85 193 264 b 590 888 193 708 364 888 b 918 717 729 888 847 819 l 1004 778 b 590 993 913 908 761 993 b 83 486 310 993 83 767 b 590 -21 83 206 310 -21 z m 401 1319 l 310 1319 l 458 1079 l 608 1079 l 757 1319 l 665 1319 l 533 1167 z "},"č":{"ha":706,"x_min":0,"x_max":0,"o":"m 582 188 b 389 78 538 122 468 78 b 164 314 258 78 164 185 b 389 551 164 444 258 551 b 582 442 468 551 538 507 l 661 496 b 389 646 599 588 501 646 b 63 314 206 646 63 497 b 389 -17 63 132 206 -17 b 661 133 501 -17 599 42 z m 249 1042 l 157 1042 l 306 801 l 456 801 l 604 1042 l 513 1042 l 381 889 z "},"Ď":{"ha":960,"x_min":0,"x_max":0,"o":"m 897 486 b 400 972 897 767 679 972 l 104 972 l 104 0 l 400 0 b 897 486 679 0 897 206 z m 788 486 b 400 106 788 264 626 106 l 213 106 l 213 867 l 400 867 b 788 486 626 867 788 708 z m 251 1319 l 160 1319 l 308 1079 l 458 1079 l 607 1319 l 515 1319 l 383 1167 z "},"ď":{"ha":1064,"x_min":0,"x_max":0,"o":"m 356 646 b 63 314 161 646 63 504 b 356 -19 63 124 161 -19 b 575 83 443 -19 521 24 l 575 0 l 671 0 l 671 1042 l 569 1042 l 569 550 b 356 646 517 607 443 646 z m 164 314 b 365 547 164 450 229 547 b 569 415 457 547 529 494 l 569 210 b 365 81 529 133 458 81 b 164 314 229 81 164 178 z m 779 578 l 854 578 l 1008 972 l 879 972 z "},"Đ":{"ha":960,"x_min":0,"x_max":0,"o":"m 0 558 l 0 453 l 104 453 l 104 0 l 400 0 b 897 486 679 0 897 206 b 400 972 897 767 679 972 l 104 972 l 104 558 z m 213 558 l 213 867 l 400 867 b 788 486 626 867 788 708 b 400 106 788 264 626 106 l 213 106 l 213 453 l 515 453 l 515 558 z "},"đ":{"ha":765,"x_min":0,"x_max":0,"o":"m 356 646 b 63 314 161 646 63 504 b 356 -19 63 124 161 -19 b 575 83 443 -19 521 24 l 575 0 l 671 0 l 671 828 l 765 828 l 765 926 l 671 926 l 671 1042 l 569 1042 l 569 926 l 240 926 l 240 828 l 569 828 l 569 550 b 356 646 517 607 443 646 z m 365 81 b 164 314 229 81 164 178 b 365 547 164 450 229 547 b 569 415 457 547 529 494 l 569 210 b 365 81 529 133 458 81 z "},"Ē":{"ha":628,"x_min":0,"x_max":0,"o":"m 586 106 l 213 106 l 213 453 l 551 453 l 551 558 l 213 558 l 213 867 l 586 867 l 586 972 l 104 972 l 104 0 l 586 0 z m 128 1121 l 569 1121 l 569 1219 l 128 1219 z "},"ē":{"ha":767,"x_min":0,"x_max":0,"o":"m 63 314 b 400 -17 63 125 211 -17 b 689 133 517 -17 619 35 l 621 194 b 401 79 564 124 489 79 b 164 274 283 79 189 157 l 703 274 b 704 321 703 289 704 306 b 393 646 704 533 579 646 b 63 314 204 646 63 503 z m 393 557 b 608 363 511 557 593 479 l 163 363 b 393 557 182 478 272 557 z m 176 843 l 618 843 l 618 942 l 176 942 z "},"Ė":{"ha":628,"x_min":0,"x_max":0,"o":"m 586 106 l 213 106 l 213 453 l 551 453 l 551 558 l 213 558 l 213 867 l 586 867 l 586 972 l 104 972 l 104 0 l 586 0 z m 296 1154 b 364 1088 296 1118 328 1088 b 431 1154 399 1088 431 1118 b 364 1221 431 1190 399 1221 b 296 1154 328 1221 296 1190 z "},"ė":{"ha":767,"x_min":0,"x_max":0,"o":"m 63 314 b 400 -17 63 125 211 -17 b 689 133 517 -17 619 35 l 621 194 b 401 79 564 124 489 79 b 164 274 283 79 189 157 l 703 274 b 704 321 703 289 704 306 b 393 646 704 533 579 646 b 63 314 204 646 63 503 z m 393 557 b 608 363 511 557 593 479 l 163 363 b 393 557 182 478 272 557 z m 315 876 b 383 810 315 840 347 810 b 450 876 418 810 450 840 b 383 943 450 913 418 943 b 315 876 347 943 315 913 z "},"Ę":{"ha":628,"x_min":0,"x_max":0,"o":"m 586 106 l 213 106 l 213 453 l 551 453 l 551 558 l 213 558 l 213 867 l 586 867 l 586 972 l 104 972 l 104 0 l 413 0 b 301 -140 349 -31 301 -78 b 488 -294 301 -240 390 -294 b 585 -279 510 -294 542 -289 l 585 -192 b 488 -210 542 -206 503 -210 b 400 -140 443 -210 400 -190 b 586 0 400 -82 471 -29 z "},"ę":{"ha":767,"x_min":0,"x_max":0,"o":"m 63 314 b 319 -8 63 153 171 25 b 225 -140 264 -39 225 -83 b 411 -294 225 -240 314 -294 b 508 -279 433 -294 465 -289 l 508 -192 b 411 -210 465 -206 426 -210 b 324 -140 367 -210 324 -190 b 485 -7 324 -86 385 -36 b 689 133 565 11 636 58 l 621 194 b 401 79 564 124 489 79 b 164 274 283 79 189 157 l 703 274 b 704 321 703 289 704 306 b 393 646 704 533 579 646 b 63 314 204 646 63 503 z m 393 557 b 608 363 511 557 593 479 l 163 363 b 393 557 182 478 272 557 z "},"Ě":{"ha":628,"x_min":0,"x_max":0,"o":"m 586 106 l 213 106 l 213 453 l 551 453 l 551 558 l 213 558 l 213 867 l 586 867 l 586 972 l 104 972 l 104 0 l 586 0 z m 203 1319 l 111 1319 l 260 1079 l 410 1079 l 558 1319 l 467 1319 l 335 1167 z "},"ě":{"ha":767,"x_min":0,"x_max":0,"o":"m 63 314 b 400 -17 63 125 211 -17 b 689 133 517 -17 619 35 l 621 194 b 401 79 564 124 489 79 b 164 274 283 79 189 157 l 703 274 b 704 321 703 289 704 306 b 393 646 704 533 579 646 b 63 314 204 646 63 503 z m 393 557 b 608 363 511 557 593 479 l 163 363 b 393 557 182 478 272 557 z m 251 1042 l 160 1042 l 308 801 l 458 801 l 607 1042 l 515 1042 l 383 889 z "},"Ģ":{"ha":1068,"x_min":0,"x_max":0,"o":"m 1004 778 b 590 993 913 908 761 993 b 83 486 310 993 83 767 b 590 -21 83 206 310 -21 b 1006 196 761 -21 914 65 l 1006 497 l 563 497 l 563 392 l 897 392 l 897 235 b 590 85 828 143 717 85 b 193 486 364 85 193 264 b 590 888 193 708 364 888 b 918 717 729 888 847 819 z m 428 -433 l 503 -433 l 640 -94 l 511 -94 z "},"ģ":{"ha":760,"x_min":0,"x_max":0,"o":"m 356 -18 b 571 76 444 -18 517 18 l 571 -24 b 357 -239 571 -174 474 -239 b 140 -143 276 -239 228 -208 l 86 -225 b 357 -333 189 -297 254 -333 b 672 -15 528 -333 672 -235 l 672 628 l 576 628 l 576 543 b 356 647 521 604 446 647 b 63 314 161 647 63 504 b 356 -18 63 124 161 -18 z m 164 314 b 364 547 164 450 229 547 b 571 417 458 547 529 494 l 571 211 b 364 81 529 133 458 81 b 164 314 229 81 164 178 z m 522 1181 l 447 1181 l 293 786 l 422 786 z "},"Ī":{"ha":317,"x_min":0,"x_max":0,"o":"m 213 972 l 104 972 l 104 0 l 213 0 z m -18 1121 l 335 1121 l 335 1219 l -18 1219 z "},"ī":{"ha":285,"x_min":0,"x_max":0,"o":"m 92 0 l 193 0 l 193 628 l 92 628 z m -12 843 l 297 843 l 297 942 l -12 942 z "},"Į":{"ha":317,"x_min":0,"x_max":0,"o":"m 213 972 l 104 972 l 104 24 b -72 -140 11 -3 -72 -57 b 114 -294 -72 -240 17 -294 b 211 -279 136 -294 168 -289 l 211 -192 b 114 -210 168 -206 129 -210 b 26 -140 69 -210 26 -190 b 213 0 26 -82 97 -29 z "},"į":{"ha":285,"x_min":0,"x_max":0,"o":"m 193 0 l 193 628 l 92 628 l 92 26 b -92 -140 -4 0 -92 -56 b 94 -294 -92 -240 -3 -294 b 192 -279 117 -294 149 -289 l 192 -192 b 94 -210 149 -206 110 -210 b 7 -140 50 -210 7 -190 b 193 0 7 -82 78 -29 z m 75 876 b 143 810 75 840 107 810 b 210 876 178 810 210 840 b 143 943 210 913 178 943 b 75 876 107 943 75 913 z "},"ı":{"ha":285,"x_min":0,"x_max":0,"o":"m 92 0 l 193 0 l 193 628 l 92 628 z "},"Ķ":{"ha":867,"x_min":0,"x_max":0,"o":"m 211 0 l 211 453 l 307 453 b 785 -8 428 453 536 -8 b 846 0 806 -8 826 -6 l 846 108 b 808 103 833 106 821 103 b 401 507 624 103 528 489 l 808 972 l 678 972 l 314 558 l 211 558 l 211 972 l 104 972 l 104 0 z m 299 -433 l 374 -433 l 511 -94 l 382 -94 z "},"ķ":{"ha":638,"x_min":0,"x_max":0,"o":"m 94 0 l 196 0 l 196 278 l 254 278 b 574 -8 364 215 404 -8 b 631 0 593 -8 613 -6 l 631 101 b 592 93 618 96 604 93 b 332 331 483 93 425 292 l 617 628 l 492 628 l 246 372 l 196 372 l 196 1042 l 94 1042 z m 213 -433 l 288 -433 l 425 -94 l 296 -94 z "},"Ĺ":{"ha":628,"x_min":0,"x_max":0,"o":"m 104 0 l 586 0 l 586 106 l 213 106 l 213 972 l 104 972 z m 215 1079 l 422 1319 l 272 1319 l 124 1079 z "},"ĺ":{"ha":290,"x_min":0,"x_max":0,"o":"m 94 1042 l 94 0 l 196 0 l 196 1042 z m 185 1079 l 392 1319 l 242 1319 l 93 1079 z "},"Ļ":{"ha":628,"x_min":0,"x_max":0,"o":"m 104 0 l 586 0 l 586 106 l 213 106 l 213 972 l 104 972 z m 207 -433 l 282 -433 l 419 -94 l 290 -94 z "},"ļ":{"ha":290,"x_min":0,"x_max":0,"o":"m 94 1042 l 94 0 l 196 0 l 196 1042 z m -17 -433 l 58 -433 l 196 -94 l 67 -94 z "},"Ľ":{"ha":628,"x_min":0,"x_max":0,"o":"m 104 0 l 586 0 l 586 106 l 213 106 l 213 972 l 104 972 z m 324 578 l 399 578 l 553 972 l 424 972 z "},"ľ":{"ha":589,"x_min":0,"x_max":0,"o":"m 94 1042 l 94 0 l 196 0 l 196 1042 z m 304 578 l 379 578 l 533 972 l 404 972 z "},"Ł":{"ha":628,"x_min":0,"x_max":0,"o":"m 0 313 l 104 389 l 104 0 l 586 0 l 586 106 l 213 106 l 213 468 l 332 556 l 332 660 l 213 572 l 213 972 l 104 972 l 104 493 l 0 417 z "},"ł":{"ha":290,"x_min":0,"x_max":0,"o":"m 94 1042 l 94 514 l 0 443 l 0 339 l 94 410 l 94 0 l 196 0 l 196 486 l 290 557 l 290 661 l 196 590 l 196 1042 z "},"Ń":{"ha":1019,"x_min":0,"x_max":0,"o":"m 213 972 l 104 972 l 104 0 l 213 0 l 213 783 l 807 0 l 915 0 l 915 972 l 807 972 l 807 188 z m 453 1079 l 660 1319 l 510 1319 l 361 1079 z "},"ń":{"ha":740,"x_min":0,"x_max":0,"o":"m 551 0 l 653 0 l 653 392 b 433 646 653 578 568 646 b 196 526 342 646 254 583 l 196 628 l 94 628 l 94 0 l 196 0 l 196 404 b 414 544 246 464 329 544 b 551 368 485 544 551 518 z m 313 801 l 519 1042 l 369 1042 l 221 801 z "},"Ņ":{"ha":1019,"x_min":0,"x_max":0,"o":"m 213 972 l 104 972 l 104 0 l 213 0 l 213 783 l 807 0 l 915 0 l 915 972 l 807 972 l 807 188 z m 403 -433 l 478 -433 l 615 -94 l 486 -94 z "},"ņ":{"ha":740,"x_min":0,"x_max":0,"o":"m 551 0 l 653 0 l 653 392 b 433 646 653 578 568 646 b 196 526 342 646 254 583 l 196 628 l 94 628 l 94 0 l 196 0 l 196 404 b 414 544 246 464 329 544 b 551 368 485 544 551 518 z m 264 -433 l 339 -433 l 476 -94 l 347 -94 z "},"Ň":{"ha":1019,"x_min":0,"x_max":0,"o":"m 213 972 l 104 972 l 104 0 l 213 0 l 213 783 l 807 0 l 915 0 l 915 972 l 807 972 l 807 188 z m 378 1319 l 286 1319 l 435 1079 l 585 1079 l 733 1319 l 642 1319 l 510 1167 z "},"ň":{"ha":740,"x_min":0,"x_max":0,"o":"m 551 0 l 653 0 l 653 392 b 433 646 653 578 568 646 b 196 526 342 646 254 583 l 196 628 l 94 628 l 94 0 l 196 0 l 196 404 b 414 544 246 464 329 544 b 551 368 485 544 551 518 z m 238 1042 l 146 1042 l 294 801 l 444 801 l 593 1042 l 501 1042 l 369 889 z "},"Ō":{"ha":1161,"x_min":0,"x_max":0,"o":"m 193 486 b 581 888 193 708 354 888 b 968 486 807 888 968 708 b 581 85 968 264 807 85 b 193 486 354 85 193 264 z m 83 486 b 581 -21 83 206 300 -21 b 1078 486 860 -21 1078 206 b 581 993 1078 767 860 993 b 83 486 300 993 83 767 z m 360 1188 l 801 1188 l 801 1286 l 360 1286 z "},"ō":{"ha":772,"x_min":0,"x_max":0,"o":"m 388 551 b 608 314 518 551 608 444 b 388 78 608 185 518 78 b 164 314 258 78 164 185 b 388 551 164 444 258 551 z m 63 314 b 388 -17 63 132 204 -17 b 710 314 571 -17 710 132 b 388 646 710 497 571 646 b 63 314 204 646 63 497 z m 165 843 l 607 843 l 607 942 l 165 942 z "},"Ő":{"ha":1161,"x_min":0,"x_max":0,"o":"m 193 486 b 581 888 193 708 354 888 b 968 486 807 888 968 708 b 581 85 968 264 807 85 b 193 486 354 85 193 264 z m 83 486 b 581 -21 83 206 300 -21 b 1078 486 860 -21 1078 206 b 581 993 1078 767 860 993 b 83 486 300 993 83 767 z m 381 1079 l 588 1319 l 438 1319 l 289 1079 z m 665 1079 l 872 1319 l 722 1319 l 574 1079 z "},"ő":{"ha":772,"x_min":0,"x_max":0,"o":"m 388 551 b 608 314 518 551 608 444 b 388 78 608 185 518 78 b 164 314 258 78 164 185 b 388 551 164 444 258 551 z m 63 314 b 388 -17 63 132 204 -17 b 710 314 571 -17 710 132 b 388 646 710 497 571 646 b 63 314 204 646 63 497 z m 186 801 l 393 1042 l 243 1042 l 94 801 z m 471 801 l 678 1042 l 528 1042 l 379 801 z "},"Œ":{"ha":1492,"x_min":0,"x_max":0,"o":"m 581 993 b 83 486 300 993 83 767 b 581 -21 83 206 300 -21 b 968 167 739 -21 878 51 l 968 0 l 1450 0 l 1450 106 l 1076 106 b 1076 453 1076 219 1076 339 l 1415 453 l 1415 558 l 1076 558 l 1076 867 l 1450 867 l 1450 972 l 968 972 l 968 806 b 581 993 878 921 739 993 z m 193 486 b 581 888 193 708 354 888 b 968 486 807 888 968 708 b 581 85 968 264 807 85 b 193 486 354 85 193 264 z "},"œ":{"ha":1313,"x_min":0,"x_max":0,"o":"m 388 -17 b 660 135 504 -17 603 44 b 946 -17 719 42 824 -17 b 1235 133 1063 -17 1165 35 l 1167 194 b 947 79 1110 124 1035 79 b 710 274 829 79 735 157 l 1249 274 b 1250 321 1249 289 1250 306 b 939 646 1250 533 1125 646 b 658 496 818 646 717 588 b 388 646 603 586 504 646 b 63 314 204 646 63 497 b 388 -17 63 132 204 -17 z m 164 314 b 388 551 164 444 258 551 b 608 314 518 551 608 444 b 388 78 608 185 518 78 b 164 314 258 78 164 185 z m 939 557 b 1154 363 1057 557 1139 479 l 708 363 b 939 557 728 478 818 557 z "},"Ŕ":{"ha":803,"x_min":0,"x_max":0,"o":"m 325 369 b 700 -8 404 369 475 -8 b 761 0 721 -8 742 -6 l 761 108 b 725 103 750 104 738 103 b 446 385 589 103 526 353 b 694 669 588 407 694 525 b 383 972 694 842 553 972 l 104 972 l 104 0 l 213 0 l 213 369 z m 213 475 l 213 867 l 374 867 b 588 669 486 867 588 788 b 374 475 588 551 486 475 z m 331 1079 l 538 1319 l 388 1319 l 239 1079 z "},"ŕ":{"ha":463,"x_min":0,"x_max":0,"o":"m 449 628 b 364 646 418 642 390 646 b 196 547 294 646 221 607 l 196 628 l 94 628 l 94 0 l 196 0 l 196 413 b 351 542 228 497 276 542 b 421 528 374 542 396 539 z m 243 801 l 450 1042 l 300 1042 l 151 801 z "},"Ŗ":{"ha":803,"x_min":0,"x_max":0,"o":"m 325 369 b 700 -8 404 369 475 -8 b 761 0 721 -8 742 -6 l 761 108 b 725 103 750 104 738 103 b 446 385 589 103 526 353 b 694 669 588 407 694 525 b 383 972 694 842 553 972 l 104 972 l 104 0 l 213 0 l 213 369 z m 213 475 l 213 867 l 374 867 b 588 669 486 867 588 788 b 374 475 588 551 486 475 z m 294 -433 l 369 -433 l 507 -94 l 378 -94 z "},"ŗ":{"ha":463,"x_min":0,"x_max":0,"o":"m 449 628 b 364 646 418 642 390 646 b 196 547 294 646 221 607 l 196 628 l 94 628 l 94 0 l 196 0 l 196 413 b 351 542 228 497 276 542 b 421 528 374 542 396 539 z m -4 -433 l 71 -433 l 208 -94 l 79 -94 z "},"Ř":{"ha":803,"x_min":0,"x_max":0,"o":"m 325 369 b 700 -8 404 369 475 -8 b 761 0 721 -8 742 -6 l 761 108 b 725 103 750 104 738 103 b 446 385 589 103 526 353 b 694 669 588 407 694 525 b 383 972 694 842 553 972 l 104 972 l 104 0 l 213 0 l 213 369 z m 213 475 l 213 867 l 374 867 b 588 669 486 867 588 788 b 374 475 588 551 486 475 z m 228 1319 l 136 1319 l 285 1079 l 435 1079 l 583 1319 l 492 1319 l 360 1167 z "},"ř":{"ha":463,"x_min":0,"x_max":0,"o":"m 449 628 b 364 646 418 642 390 646 b 196 547 294 646 221 607 l 196 628 l 94 628 l 94 0 l 196 0 l 196 413 b 351 542 228 497 276 542 b 421 528 374 542 396 539 z m 100 1042 l 8 1042 l 157 801 l 307 801 l 456 1042 l 364 1042 l 232 889 z "},"Ś":{"ha":765,"x_min":0,"x_max":0,"o":"m 178 732 b 376 892 178 829 257 892 b 642 754 488 892 553 843 l 710 842 b 378 993 607 939 522 993 b 74 732 196 993 74 889 b 614 271 74 349 614 526 b 382 82 614 172 528 82 b 108 218 274 82 196 133 l 42 136 b 382 -21 144 33 243 -21 b 724 272 589 -21 724 114 b 178 732 724 647 178 471 z m 381 1079 l 588 1319 l 438 1319 l 289 1079 z "},"ś":{"ha":572,"x_min":0,"x_max":0,"o":"m 428 178 b 281 72 428 117 367 72 b 96 172 214 72 171 96 l 31 100 b 281 -19 106 17 182 -19 b 525 179 428 -19 525 56 b 165 468 525 431 165 317 b 285 553 165 521 211 553 b 450 463 358 553 407 526 l 518 529 b 285 647 460 610 386 647 b 69 467 154 647 69 576 b 428 178 69 217 428 321 z m 297 801 l 504 1042 l 354 1042 l 206 801 z "},"Š":{"ha":765,"x_min":0,"x_max":0,"o":"m 178 732 b 376 892 178 829 257 892 b 642 754 488 892 553 843 l 710 842 b 378 993 607 939 522 993 b 74 732 196 993 74 889 b 614 271 74 349 614 526 b 382 82 614 172 528 82 b 108 218 274 82 196 133 l 42 136 b 382 -21 144 33 243 -21 b 724 272 589 -21 724 114 b 178 732 724 647 178 471 z m 251 1319 l 160 1319 l 308 1079 l 458 1079 l 607 1319 l 515 1319 l 383 1167 z "},"š":{"ha":572,"x_min":0,"x_max":0,"o":"m 428 178 b 281 72 428 117 367 72 b 96 172 214 72 171 96 l 31 100 b 281 -19 106 17 182 -19 b 525 179 428 -19 525 56 b 165 468 525 431 165 317 b 285 553 165 521 211 553 b 450 463 358 553 407 526 l 518 529 b 285 647 460 610 386 647 b 69 467 154 647 69 576 b 428 178 69 217 428 321 z m 154 1042 l 63 1042 l 211 801 l 361 801 l 510 1042 l 418 1042 l 286 889 z "},"Ť":{"ha":842,"x_min":0,"x_max":0,"o":"m 475 0 l 475 867 l 807 867 l 807 972 l 35 972 l 35 867 l 367 867 l 367 0 z m 289 1319 l 197 1319 l 346 1079 l 496 1079 l 644 1319 l 553 1319 l 421 1167 z "},"ť":{"ha":767,"x_min":0,"x_max":0,"o":"m 254 533 l 442 533 l 442 628 l 254 628 l 254 842 l 153 842 l 153 628 l 42 628 l 42 535 l 153 535 l 153 224 b 296 -17 153 69 175 -17 b 443 17 342 -17 396 -4 l 443 115 b 314 78 388 89 346 78 b 254 186 267 78 254 113 z m 482 578 l 557 578 l 711 972 l 582 972 z "},"Ū":{"ha":1019,"x_min":0,"x_max":0,"o":"m 922 972 l 814 972 l 814 386 b 510 85 814 203 679 85 b 206 386 340 85 206 203 l 206 972 l 97 972 l 97 386 b 510 -21 97 146 268 -21 b 922 386 751 -21 922 146 z m 289 1121 l 731 1121 l 731 1219 l 289 1219 z "},"ū":{"ha":740,"x_min":0,"x_max":0,"o":"m 189 628 l 88 628 l 88 238 b 308 -18 88 50 172 -18 b 544 103 399 -18 486 44 l 544 0 l 646 0 l 646 628 l 544 628 l 544 224 b 326 85 494 164 411 85 b 189 260 256 85 189 111 z m 149 843 l 590 843 l 590 942 l 149 942 z "},"Ů":{"ha":1019,"x_min":0,"x_max":0,"o":"m 922 972 l 814 972 l 814 386 b 510 85 814 203 679 85 b 206 386 340 85 206 203 l 206 972 l 97 972 l 97 386 b 510 -21 97 146 268 -21 b 922 386 751 -21 922 146 z m 683 1175 b 510 1347 683 1276 608 1347 b 336 1175 411 1347 336 1276 b 510 1003 336 1074 411 1003 b 683 1175 608 1003 683 1074 z m 600 1175 b 510 1085 600 1124 561 1085 b 419 1175 458 1085 419 1124 b 510 1265 419 1226 458 1265 b 600 1175 561 1265 600 1226 z "},"ů":{"ha":740,"x_min":0,"x_max":0,"o":"m 189 628 l 88 628 l 88 238 b 308 -18 88 50 172 -18 b 544 103 399 -18 486 44 l 544 0 l 646 0 l 646 628 l 544 628 l 544 224 b 326 85 494 164 411 85 b 189 260 256 85 189 111 z m 543 897 b 369 1069 543 999 468 1069 b 196 897 271 1069 196 999 b 369 725 196 796 271 725 b 543 897 468 725 543 796 z m 460 897 b 369 807 460 846 421 807 b 279 897 318 807 279 846 b 369 988 279 949 318 988 b 460 897 421 988 460 949 z "},"Ű":{"ha":1019,"x_min":0,"x_max":0,"o":"m 922 972 l 814 972 l 814 386 b 510 85 814 203 679 85 b 206 386 340 85 206 203 l 206 972 l 97 972 l 97 386 b 510 -21 97 146 268 -21 b 922 386 751 -21 922 146 z m 365 1079 l 572 1319 l 422 1319 l 274 1079 z m 650 1079 l 857 1319 l 707 1319 l 558 1079 z "},"ű":{"ha":740,"x_min":0,"x_max":0,"o":"m 189 628 l 88 628 l 88 238 b 308 -18 88 50 172 -18 b 544 103 399 -18 486 44 l 544 0 l 646 0 l 646 628 l 544 628 l 544 224 b 326 85 494 164 411 85 b 189 260 256 85 189 111 z m 211 801 l 418 1042 l 268 1042 l 119 801 z m 496 801 l 703 1042 l 553 1042 l 404 801 z "},"Ų":{"ha":1019,"x_min":0,"x_max":0,"o":"m 922 972 l 814 972 l 814 386 b 510 85 814 203 679 85 b 206 386 340 85 206 203 l 206 972 l 97 972 l 97 386 b 444 -17 97 168 238 10 b 364 -140 397 -46 364 -87 b 550 -294 364 -240 453 -294 b 647 -279 572 -294 604 -289 l 647 -192 b 550 -210 604 -206 565 -210 b 463 -140 506 -210 463 -190 b 617 -8 463 -87 521 -39 b 922 386 800 33 922 183 z "},"ų":{"ha":740,"x_min":0,"x_max":0,"o":"m 189 628 l 88 628 l 88 238 b 308 -18 88 50 172 -18 b 544 103 399 -18 486 44 l 544 26 b 361 -140 449 0 361 -56 b 547 -294 361 -240 450 -294 b 644 -279 569 -294 601 -289 l 644 -192 b 547 -210 601 -206 563 -210 b 460 -140 503 -210 460 -190 b 646 0 460 -82 531 -29 l 646 628 l 544 628 l 544 224 b 326 85 494 164 411 85 b 189 260 256 85 189 111 z "},"Ÿ":{"ha":797,"x_min":0,"x_max":0,"o":"m 344 331 l 344 0 l 453 0 l 453 331 l 783 972 l 661 972 l 399 461 l 136 972 l 14 972 z m 194 1151 b 260 1088 194 1117 225 1088 b 325 1151 294 1088 325 1117 b 260 1218 325 1188 294 1218 b 194 1151 225 1218 194 1188 z m 472 1151 b 538 1088 472 1117 503 1088 b 603 1151 572 1088 603 1117 b 538 1218 603 1188 572 1218 b 472 1151 503 1218 472 1188 z "},"Ź":{"ha":813,"x_min":0,"x_max":0,"o":"m 775 972 l 46 972 l 46 871 l 615 871 l 28 68 l 28 0 l 785 0 l 785 101 l 186 101 l 775 904 z m 349 1079 l 556 1319 l 406 1319 l 257 1079 z "},"ź":{"ha":625,"x_min":0,"x_max":0,"o":"m 194 100 l 579 560 l 579 628 l 46 628 l 46 529 l 421 529 l 38 67 l 38 0 l 588 0 l 588 100 z m 240 801 l 447 1042 l 297 1042 l 149 801 z "},"Ż":{"ha":813,"x_min":0,"x_max":0,"o":"m 775 972 l 46 972 l 46 871 l 615 871 l 28 68 l 28 0 l 785 0 l 785 101 l 186 101 l 775 904 z m 339 1154 b 407 1088 339 1118 371 1088 b 474 1154 442 1088 474 1118 b 407 1221 474 1190 442 1221 b 339 1154 371 1221 339 1190 z "},"ż":{"ha":625,"x_min":0,"x_max":0,"o":"m 194 100 l 579 560 l 579 628 l 46 628 l 46 529 l 421 529 l 38 67 l 38 0 l 588 0 l 588 100 z m 231 876 b 299 810 231 840 263 810 b 365 876 333 810 365 840 b 299 943 365 913 333 943 b 231 876 263 943 231 913 z "},"Ž":{"ha":813,"x_min":0,"x_max":0,"o":"m 775 972 l 46 972 l 46 871 l 615 871 l 28 68 l 28 0 l 785 0 l 785 101 l 186 101 l 775 904 z m 275 1319 l 183 1319 l 332 1079 l 482 1079 l 631 1319 l 539 1319 l 407 1167 z "},"ž":{"ha":625,"x_min":0,"x_max":0,"o":"m 194 100 l 579 560 l 579 628 l 46 628 l 46 529 l 421 529 l 38 67 l 38 0 l 588 0 l 588 100 z m 167 1042 l 75 1042 l 224 801 l 374 801 l 522 1042 l 431 1042 l 299 889 z "},"ˆ":{"ha":531,"x_min":0,"x_max":0,"o":"m 133 801 l 265 954 l 397 801 l 489 801 l 340 1042 l 190 1042 l 42 801 z "},"ˇ":{"ha":531,"x_min":0,"x_max":0,"o":"m 133 1042 l 42 1042 l 190 801 l 340 801 l 489 1042 l 397 1042 l 265 889 z "},"˘":{"ha":731,"x_min":0,"x_max":0,"o":"m 365 744 b 611 876 474 744 556 778 l 531 935 b 365 838 488 860 450 838 b 200 935 281 838 243 860 l 119 876 b 365 744 175 778 257 744 z "},"˙":{"ha":285,"x_min":0,"x_max":0,"o":"m 75 876 b 143 810 75 840 107 810 b 210 876 178 810 210 840 b 143 943 210 913 178 943 b 75 876 107 943 75 913 z "},"˚":{"ha":458,"x_min":0,"x_max":0,"o":"m 403 897 b 229 1069 403 999 328 1069 b 56 897 131 1069 56 999 b 229 725 56 796 131 725 b 403 897 328 725 403 796 z m 319 897 b 229 807 319 846 281 807 b 139 897 178 807 139 846 b 229 988 139 949 178 988 b 319 897 281 988 319 949 z "},"˛":{"ha":382,"x_min":0,"x_max":0,"o":"m 326 0 l 268 36 b 42 -140 157 17 42 -43 b 228 -294 42 -240 131 -294 b 325 -279 250 -294 282 -289 l 325 -192 b 228 -210 282 -206 243 -210 b 140 -140 183 -210 140 -190 b 326 0 140 -82 211 -29 z "},"˜":{"ha":649,"x_min":0,"x_max":0,"o":"m 226 903 b 422 799 271 903 324 799 b 593 968 499 799 553 851 l 503 1007 b 422 897 479 936 457 897 b 226 1001 357 897 314 1001 b 56 832 150 1001 96 949 l 146 793 b 226 903 169 864 192 903 z "},"˝":{"ha":683,"x_min":0,"x_max":0,"o":"m 133 801 l 340 1042 l 190 1042 l 42 801 z m 418 801 l 625 1042 l 475 1042 l 326 801 z "},"Ё":{"ha":628,"x_min":0,"x_max":0,"o":"m 586 106 l 213 106 l 213 453 l 551 453 l 551 558 l 213 558 l 213 867 l 586 867 l 586 972 l 104 972 l 104 0 l 586 0 z m 117 1151 b 182 1088 117 1117 147 1088 b 247 1151 217 1088 247 1117 b 182 1218 247 1188 217 1218 b 117 1151 147 1218 117 1188 z m 394 1151 b 460 1088 394 1117 425 1088 b 525 1151 494 1088 525 1117 b 460 1218 525 1188 494 1218 b 394 1151 425 1218 394 1188 z "},"Ђ":{"ha":1071,"x_min":0,"x_max":0,"o":"m 1029 274 b 701 593 1029 504 892 593 b 475 569 631 593 553 582 l 475 867 l 807 867 l 807 972 l 35 972 l 35 867 l 367 867 l 367 0 l 475 0 l 475 469 b 692 493 549 482 631 493 b 921 274 854 493 921 417 b 764 85 921 146 839 85 b 578 163 694 85 632 121 l 521 74 b 758 -21 596 14 671 -21 b 1029 274 890 -21 1029 79 z "},"Ѓ":{"ha":628,"x_min":0,"x_max":0,"o":"m 104 0 l 213 0 l 213 867 l 586 867 l 586 972 l 104 972 z m 340 1079 l 547 1319 l 397 1319 l 249 1079 z "},"Є":{"ha":1067,"x_min":0,"x_max":0,"o":"m 918 256 b 590 85 847 153 729 85 b 194 453 375 85 211 246 l 694 453 l 694 558 l 199 558 b 590 888 232 746 389 888 b 918 717 729 888 847 819 l 1004 778 b 590 993 913 908 761 993 b 83 486 310 993 83 767 b 590 -21 83 206 310 -21 b 1004 194 761 -21 913 64 z "},"Ѕ":{"ha":765,"x_min":0,"x_max":0,"o":"m 178 732 b 376 892 178 829 257 892 b 642 754 488 892 553 843 l 710 842 b 378 993 607 939 522 993 b 74 732 196 993 74 889 b 614 271 74 349 614 526 b 382 82 614 172 528 82 b 108 218 274 82 196 133 l 42 136 b 382 -21 144 33 243 -21 b 724 272 589 -21 724 114 b 178 732 724 647 178 471 z "},"І":{"ha":317,"x_min":0,"x_max":0,"o":"m 213 972 l 104 972 l 104 0 l 213 0 z "},"Ї":{"ha":317,"x_min":0,"x_max":0,"o":"m 213 972 l 104 972 l 104 0 l 213 0 z m -46 1151 b 19 1088 -46 1117 -15 1088 b 85 1151 54 1088 85 1117 b 19 1218 85 1188 54 1218 b -46 1151 -15 1218 -46 1188 z m 232 1151 b 297 1088 232 1117 263 1088 b 363 1151 332 1088 363 1117 b 297 1218 363 1188 332 1218 b 232 1151 263 1218 232 1188 z "},"Ј":{"ha":556,"x_min":0,"x_max":0,"o":"m 386 263 b 226 82 386 142 342 82 b 68 149 168 82 115 107 l 6 68 b 226 -21 65 14 146 -21 b 494 263 449 -21 494 151 l 494 972 l 386 972 z "},"Љ":{"ha":1394,"x_min":0,"x_max":0,"o":"m 14 0 b 79 -8 42 -4 54 -8 b 383 871 271 -8 383 157 l 772 871 l 772 0 l 1060 0 b 1353 279 1232 0 1353 118 b 1060 560 1353 439 1232 561 l 881 558 l 881 972 l 281 972 b 58 99 281 268 200 99 b 14 108 39 99 35 104 z m 1044 106 l 881 106 l 881 453 l 1044 453 b 1244 278 1165 453 1244 379 b 1044 106 1244 164 1163 106 z "},"Њ":{"ha":1429,"x_min":0,"x_max":0,"o":"m 104 0 l 213 0 l 213 453 l 807 453 l 807 0 l 1094 0 b 1388 279 1267 0 1388 118 b 1094 560 1388 439 1267 561 l 915 558 l 915 972 l 807 972 l 807 558 l 213 558 l 213 972 l 104 972 z m 915 453 l 1079 453 b 1279 278 1200 453 1279 379 b 1079 106 1279 164 1197 106 l 915 106 z "},"Ћ":{"ha":1085,"x_min":0,"x_max":0,"o":"m 35 867 l 367 867 l 367 0 l 475 0 l 475 469 b 719 493 574 483 658 493 b 921 274 882 493 921 417 l 921 0 l 1029 0 l 1029 274 b 729 593 1029 504 919 593 b 475 569 658 593 578 583 l 475 867 l 807 867 l 807 972 l 35 972 z "},"Ќ":{"ha":867,"x_min":0,"x_max":0,"o":"m 211 0 l 211 453 l 307 453 b 785 -8 428 453 536 -8 b 846 0 806 -8 826 -6 l 846 108 b 808 103 833 106 821 103 b 401 507 624 103 528 489 l 808 972 l 678 972 l 314 558 l 211 558 l 211 972 l 104 972 l 104 0 z m 376 1079 l 583 1319 l 433 1319 l 285 1079 z "},"Ў":{"ha":883,"x_min":0,"x_max":0,"o":"m 271 0 l 393 0 l 869 972 l 746 972 l 444 354 l 139 972 l 14 972 l 383 229 z m 442 1022 b 688 1154 550 1022 632 1056 l 607 1213 b 442 1115 564 1138 526 1115 b 276 1213 357 1115 319 1138 l 196 1154 b 442 1022 251 1056 333 1022 z "},"Џ":{"ha":1019,"x_min":0,"x_max":0,"o":"m 461 -229 l 558 -229 l 558 0 l 915 0 l 915 972 l 807 972 l 807 106 l 213 106 l 213 972 l 104 972 l 104 0 l 461 0 z "},"А":{"ha":904,"x_min":0,"x_max":0,"o":"m 149 0 l 263 281 l 640 281 l 756 0 l 876 0 l 469 972 l 435 972 l 28 0 z m 451 743 l 596 389 l 307 389 z "},"Б":{"ha":740,"x_min":0,"x_max":0,"o":"m 392 560 l 213 560 l 213 867 l 614 867 l 614 972 l 104 972 l 104 0 l 392 0 b 685 279 564 0 685 118 b 392 560 685 439 564 561 z m 576 278 b 376 106 576 164 494 106 l 213 106 l 213 453 l 376 453 b 576 278 497 453 576 379 z "},"В":{"ha":740,"x_min":0,"x_max":0,"o":"m 213 867 l 333 867 b 514 713 440 867 514 814 b 360 558 514 619 456 558 l 213 558 z m 213 106 l 213 453 l 363 453 b 576 278 483 453 576 379 b 363 106 576 164 481 106 z m 397 0 b 685 261 558 0 685 111 b 476 511 685 369 632 482 b 624 733 565 544 624 631 b 365 972 624 868 513 972 l 104 972 l 104 0 z "},"Г":{"ha":628,"x_min":0,"x_max":0,"o":"m 104 0 l 213 0 l 213 867 l 586 867 l 586 972 l 104 972 z "},"Д":{"ha":1076,"x_min":0,"x_max":0,"o":"m 126 0 l 944 0 l 944 -229 l 1042 -229 l 1042 106 l 911 106 l 911 972 l 310 972 b 136 106 310 436 214 246 l 28 106 l 28 -229 l 126 -229 z m 803 106 l 249 106 b 413 871 317 236 413 421 l 803 871 z "},"Е":{"ha":628,"x_min":0,"x_max":0,"o":"m 586 106 l 213 106 l 213 453 l 551 453 l 551 558 l 213 558 l 213 867 l 586 867 l 586 972 l 104 972 l 104 0 l 586 0 z "},"Ж":{"ha":1265,"x_min":0,"x_max":0,"o":"m 75 -8 b 483 453 324 -8 376 453 l 579 453 l 579 0 l 686 0 l 686 453 l 782 453 b 1190 -8 889 453 942 -8 b 1251 0 1211 -8 1232 -6 l 1251 108 b 1214 103 1239 106 1226 103 b 876 507 1029 103 989 461 l 1214 972 l 1083 972 l 789 558 l 686 558 l 686 972 l 579 972 l 579 558 l 476 558 l 182 972 l 51 972 l 389 507 b 51 103 276 461 236 103 b 14 108 39 103 26 106 l 14 0 b 75 -8 33 -6 54 -8 z "},"З":{"ha":765,"x_min":0,"x_max":0,"o":"m 369 82 b 106 203 256 82 196 119 l 42 122 b 368 -21 140 33 218 -21 b 710 264 546 -21 710 92 b 519 507 710 369 646 468 b 686 725 626 553 686 633 b 389 993 686 885 553 993 b 56 850 225 993 154 939 l 119 768 b 386 892 210 851 281 892 b 576 725 492 892 576 839 b 388 553 576 619 469 553 l 268 553 l 268 451 l 381 451 b 600 264 474 451 600 381 b 369 82 600 143 511 82 z "},"И":{"ha":978,"x_min":0,"x_max":0,"o":"m 213 972 l 104 972 l 104 0 l 213 0 l 765 783 l 765 0 l 874 0 l 874 972 l 765 972 l 213 188 z "},"Й":{"ha":978,"x_min":0,"x_max":0,"o":"m 104 972 l 104 0 l 213 0 l 765 783 l 765 0 l 874 0 l 874 972 l 765 972 l 213 188 l 213 972 z m 490 1022 b 736 1154 599 1022 681 1056 l 656 1213 b 490 1115 613 1138 575 1115 b 325 1213 406 1115 368 1138 l 244 1154 b 490 1022 300 1056 382 1022 z "},"К":{"ha":867,"x_min":0,"x_max":0,"o":"m 211 0 l 211 453 l 307 453 b 785 -8 428 453 536 -8 b 846 0 806 -8 826 -6 l 846 108 b 808 103 833 106 821 103 b 401 507 624 103 528 489 l 808 972 l 678 972 l 314 558 l 211 558 l 211 972 l 104 972 l 104 0 z "},"Л":{"ha":985,"x_min":0,"x_max":0,"o":"m 14 0 b 79 -8 42 -4 54 -8 b 383 871 271 -8 383 157 l 774 871 l 774 0 l 881 0 l 881 972 l 281 972 b 58 99 281 268 200 99 b 14 108 39 99 35 104 z "},"М":{"ha":1185,"x_min":0,"x_max":0,"o":"m 76 0 l 186 0 l 244 654 l 569 0 l 615 0 l 940 654 l 999 0 l 1108 0 l 1021 972 l 976 972 l 590 197 l 208 972 l 164 972 z "},"Н":{"ha":1019,"x_min":0,"x_max":0,"o":"m 213 972 l 104 972 l 104 0 l 213 0 l 213 453 l 807 453 l 807 0 l 915 0 l 915 972 l 807 972 l 807 558 l 213 558 z "},"О":{"ha":1161,"x_min":0,"x_max":0,"o":"m 193 486 b 581 888 193 708 354 888 b 968 486 807 888 968 708 b 581 85 968 264 807 85 b 193 486 354 85 193 264 z m 83 486 b 581 -21 83 206 300 -21 b 1078 486 860 -21 1078 206 b 581 993 1078 767 860 993 b 83 486 300 993 83 767 z "},"П":{"ha":1019,"x_min":0,"x_max":0,"o":"m 104 972 l 104 0 l 213 0 l 213 867 l 807 867 l 807 0 l 915 0 l 915 972 z "},"Р":{"ha":722,"x_min":0,"x_max":0,"o":"m 213 469 l 213 867 l 358 867 b 572 669 476 867 572 783 b 358 469 572 556 476 469 z m 369 364 b 681 669 543 364 681 501 b 369 972 681 838 543 972 l 104 972 l 104 0 l 213 0 l 213 364 z "},"С":{"ha":1067,"x_min":0,"x_max":0,"o":"m 590 -21 b 1004 194 761 -21 913 64 l 918 256 b 590 85 847 153 729 85 b 193 486 364 85 193 264 b 590 888 193 708 364 888 b 918 717 729 888 847 819 l 1004 778 b 590 993 913 908 761 993 b 83 486 310 993 83 767 b 590 -21 83 206 310 -21 z "},"Т":{"ha":842,"x_min":0,"x_max":0,"o":"m 475 0 l 475 867 l 807 867 l 807 972 l 35 972 l 35 867 l 367 867 l 367 0 z "},"У":{"ha":883,"x_min":0,"x_max":0,"o":"m 271 0 l 393 0 l 869 972 l 746 972 l 444 354 l 139 972 l 14 972 l 383 229 z "},"Ф":{"ha":1099,"x_min":0,"x_max":0,"o":"m 485 199 b 172 506 279 199 172 331 b 485 814 172 681 279 814 l 496 814 l 496 199 z m 496 104 l 496 0 l 603 0 l 603 104 l 615 104 b 1029 506 871 104 1029 268 b 615 908 1029 743 871 908 l 603 908 l 603 1000 l 496 1000 l 496 908 l 482 908 b 69 506 226 908 69 743 b 482 104 69 268 226 104 z m 603 199 l 603 814 l 613 814 b 926 506 818 814 926 681 b 613 199 926 331 818 199 z "},"Х":{"ha":903,"x_min":0,"x_max":0,"o":"m 172 972 l 42 972 l 388 496 l 28 0 l 158 0 l 451 406 l 744 0 l 875 0 l 515 496 l 861 972 l 731 972 l 451 585 z "},"Ц":{"ha":1081,"x_min":0,"x_max":0,"o":"m 949 -229 l 1046 -229 l 1046 106 l 915 106 l 915 972 l 807 972 l 807 106 l 213 106 l 213 972 l 104 972 l 104 0 l 949 0 z "},"Ч":{"ha":822,"x_min":0,"x_max":0,"o":"m 56 671 b 356 351 56 440 165 351 b 610 375 426 351 507 361 l 610 0 l 718 0 l 718 972 l 610 972 l 610 475 b 365 451 511 461 426 451 b 164 671 203 451 164 528 l 164 972 l 56 972 z "},"Ш":{"ha":1361,"x_min":0,"x_max":0,"o":"m 104 0 l 1257 0 l 1257 972 l 1149 972 l 1149 106 l 735 106 l 735 972 l 626 972 l 626 106 l 213 106 l 213 972 l 104 972 z "},"Щ":{"ha":1422,"x_min":0,"x_max":0,"o":"m 1290 -229 l 1388 -229 l 1388 106 l 1257 106 l 1257 972 l 1149 972 l 1149 106 l 735 106 l 735 972 l 626 972 l 626 106 l 213 106 l 213 972 l 104 972 l 104 0 l 1290 0 z "},"Ъ":{"ha":968,"x_min":0,"x_max":0,"o":"m 926 279 b 633 560 926 439 806 561 l 454 558 l 454 972 l 14 972 l 14 867 l 346 867 l 346 0 l 633 0 b 926 279 806 0 926 118 z m 618 106 l 454 106 l 454 453 l 618 453 b 818 278 739 453 818 379 b 618 106 818 164 736 106 z "},"Ы":{"ha":1025,"x_min":0,"x_max":0,"o":"m 392 560 l 213 558 l 213 972 l 104 972 l 104 0 l 392 0 b 685 279 564 0 685 118 b 392 560 685 439 564 561 z m 576 278 b 376 106 576 164 494 106 l 213 106 l 213 453 l 376 453 b 576 278 497 453 576 379 z m 921 0 l 921 972 l 813 972 l 813 0 z "},"Ь":{"ha":726,"x_min":0,"x_max":0,"o":"m 392 560 l 213 558 l 213 972 l 104 972 l 104 0 l 392 0 b 685 279 564 0 685 118 b 392 560 685 439 564 561 z m 576 278 b 376 106 576 164 494 106 l 213 106 l 213 453 l 376 453 b 576 278 497 453 576 379 z "},"Э":{"ha":1067,"x_min":0,"x_max":0,"o":"m 63 194 b 476 -21 154 64 306 -21 b 983 486 757 -21 983 206 b 476 993 983 767 757 993 b 63 778 306 993 154 908 l 149 717 b 476 888 219 819 338 888 b 868 558 678 888 835 746 l 372 558 l 372 453 l 872 453 b 476 85 856 246 692 85 b 149 256 338 85 219 153 l 63 194 z "},"Ю":{"ha":1494,"x_min":0,"x_max":0,"o":"m 914 993 b 422 558 658 993 456 804 l 213 558 l 213 972 l 104 972 l 104 0 l 213 0 l 213 453 l 418 453 b 914 -21 435 188 644 -21 b 1411 486 1193 -21 1411 206 b 914 993 1411 767 1193 993 z m 914 85 b 526 486 688 85 526 264 b 914 888 526 708 688 888 b 1301 486 1140 888 1301 708 b 914 85 1301 264 1140 85 z "},"Я":{"ha":817,"x_min":0,"x_max":0,"o":"m 604 369 l 604 0 l 713 0 l 713 972 l 433 972 b 122 669 260 972 122 838 b 371 385 122 524 231 407 b 92 103 294 356 226 103 b 56 108 81 103 68 104 l 56 0 b 113 -8 76 -7 94 -8 b 492 369 340 -8 401 331 z m 443 475 b 229 669 325 475 229 556 b 443 867 229 783 325 867 l 604 867 l 604 475 z "},"а":{"ha":663,"x_min":0,"x_max":0,"o":"m 265 -17 b 474 97 347 -17 421 25 l 474 0 l 575 0 l 575 404 b 342 646 575 506 550 646 b 75 524 228 646 154 613 l 140 453 b 335 553 208 533 258 553 b 474 403 429 553 474 508 l 474 399 b 63 176 160 399 63 335 b 265 -17 63 56 143 -17 z m 279 74 b 164 176 207 74 164 101 b 474 314 164 281 233 314 l 474 218 b 279 74 404 111 347 74 z "},"б":{"ha":758,"x_min":0,"x_max":0,"o":"m 392 -19 b 694 314 588 -19 694 121 b 394 631 694 496 594 631 b 158 510 294 631 214 585 b 419 846 174 696 210 800 b 454 853 429 849 443 850 b 660 907 513 867 585 878 l 632 1003 b 425 947 547 972 492 961 b 363 933 407 943 385 939 b 63 343 125 872 63 732 b 392 -19 63 135 178 -19 z m 593 308 b 392 76 593 172 524 76 b 164 308 258 76 164 172 b 392 539 164 442 258 539 b 593 308 524 539 593 442 z "},"в":{"ha":649,"x_min":0,"x_max":0,"o":"m 88 0 l 390 0 b 579 169 504 0 579 78 b 469 328 579 240 538 306 b 553 469 526 358 553 414 b 376 628 553 557 483 628 l 88 628 z m 189 276 l 357 276 b 478 181 429 276 478 238 b 360 94 478 124 432 94 l 189 94 z m 189 533 l 350 533 b 451 457 411 533 451 510 b 350 369 451 404 411 369 l 189 369 z "},"г":{"ha":515,"x_min":0,"x_max":0,"o":"m 94 628 l 94 0 l 196 0 l 196 533 l 503 533 l 503 628 z "},"д":{"ha":774,"x_min":0,"x_max":0,"o":"m 132 0 l 635 0 l 635 -183 l 732 -183 l 732 94 l 642 94 l 642 628 l 203 628 b 113 94 203 463 203 242 l 35 94 l 35 -183 l 132 -183 z m 540 94 l 225 94 b 304 533 288 233 304 383 l 540 533 z "},"е":{"ha":767,"x_min":0,"x_max":0,"o":"m 63 314 b 400 -17 63 125 211 -17 b 689 133 517 -17 619 35 l 621 194 b 401 79 564 124 489 79 b 164 274 283 79 189 157 l 703 274 b 704 321 703 289 704 306 b 393 646 704 533 579 646 b 63 314 204 646 63 503 z m 393 557 b 608 363 511 557 593 479 l 163 363 b 393 557 182 478 272 557 z "},"ж":{"ha":960,"x_min":0,"x_max":0,"o":"m 24 0 b 81 -8 44 -6 63 -8 b 343 278 243 -8 238 219 l 429 278 l 429 0 l 531 0 l 531 278 l 617 278 b 879 -8 722 219 717 -8 b 936 0 897 -8 915 -6 l 936 101 b 897 93 922 96 910 93 b 694 331 794 93 799 288 l 924 628 l 799 628 l 608 372 l 531 372 l 531 628 l 429 628 l 429 372 l 351 372 l 161 628 l 36 628 l 265 331 b 63 93 161 288 165 93 b 24 101 50 93 38 96 z "},"з":{"ha":571,"x_min":0,"x_max":0,"o":"m 281 76 b 106 164 207 76 172 97 l 38 97 b 281 -19 119 7 188 -19 b 521 185 442 -19 521 83 b 417 329 521 250 482 300 b 499 474 467 360 499 407 b 299 644 499 565 428 644 b 56 519 199 644 128 610 b 124 454 56 519 122 456 b 299 550 185 525 217 550 b 400 461 367 550 400 515 b 297 372 400 410 360 372 l 213 372 l 213 279 l 297 279 b 419 192 367 279 419 247 b 281 76 419 132 374 76 z "},"и":{"ha":744,"x_min":0,"x_max":0,"o":"m 94 628 l 94 0 l 188 0 l 549 471 l 549 0 l 650 0 l 650 628 l 556 628 l 196 161 l 196 628 z "},"й":{"ha":744,"x_min":0,"x_max":0,"o":"m 650 0 l 650 628 l 556 628 l 196 161 l 196 628 l 94 628 l 94 0 l 188 0 l 549 471 l 549 0 z m 372 744 b 618 876 481 744 563 778 l 538 935 b 372 838 494 860 457 838 b 207 935 288 838 250 860 l 126 876 b 372 744 182 778 264 744 z "},"к":{"ha":654,"x_min":0,"x_max":0,"o":"m 94 0 l 196 0 l 196 278 l 254 278 b 574 -8 360 219 406 -8 b 631 0 590 -8 610 -6 l 631 101 b 592 93 617 96 604 93 b 332 331 483 93 422 293 l 617 628 l 492 628 l 246 372 l 196 372 l 196 628 l 94 628 z "},"л":{"ha":703,"x_min":0,"x_max":0,"o":"m 14 1 b 68 -6 32 -3 50 -6 b 278 533 226 -6 278 171 l 507 533 l 507 0 l 608 0 l 608 628 l 179 628 b 56 94 179 243 153 94 b 14 101 44 94 26 96 z "},"м":{"ha":900,"x_min":0,"x_max":0,"o":"m 83 0 l 186 0 l 233 406 l 439 132 l 461 132 l 667 406 l 714 0 l 817 0 l 742 628 l 714 628 l 450 276 l 186 628 l 158 628 z "},"н":{"ha":739,"x_min":0,"x_max":0,"o":"m 196 0 l 196 278 l 543 278 l 543 0 l 644 0 l 644 628 l 543 628 l 543 372 l 196 372 l 196 628 l 94 628 l 94 0 z "},"о":{"ha":772,"x_min":0,"x_max":0,"o":"m 388 551 b 608 314 518 551 608 444 b 388 78 608 185 518 78 b 164 314 258 78 164 185 b 388 551 164 444 258 551 z m 63 314 b 388 -17 63 132 204 -17 b 710 314 571 -17 710 132 b 388 646 710 497 571 646 b 63 314 204 646 63 497 z "},"п":{"ha":739,"x_min":0,"x_max":0,"o":"m 196 0 l 196 533 l 543 533 l 543 0 l 644 0 l 644 628 l 94 628 l 94 0 z "},"р":{"ha":764,"x_min":0,"x_max":0,"o":"m 410 -15 b 701 314 603 -15 701 125 b 410 646 701 503 603 646 b 189 543 319 646 244 606 l 189 628 l 94 628 l 94 -325 l 196 -325 l 196 82 b 410 -15 249 22 319 -15 z m 600 314 b 400 81 600 179 535 81 b 196 213 307 81 236 135 l 196 419 b 400 549 236 496 307 549 b 600 314 535 549 600 451 z "},"с":{"ha":706,"x_min":0,"x_max":0,"o":"m 582 188 b 389 78 538 122 468 78 b 164 314 258 78 164 185 b 389 551 164 444 258 551 b 582 442 468 551 538 507 l 661 496 b 389 646 599 588 501 646 b 63 314 206 646 63 497 b 389 -17 63 132 206 -17 b 661 133 501 -17 599 42 z "},"т":{"ha":638,"x_min":0,"x_max":0,"o":"m 369 0 l 369 533 l 603 533 l 603 628 l 35 628 l 35 533 l 268 533 l 268 0 z "},"у":{"ha":657,"x_min":0,"x_max":0,"o":"m 133 -319 l 243 -319 l 643 628 l 533 628 l 331 142 l 124 628 l 14 628 l 274 10 z "},"ф":{"ha":874,"x_min":0,"x_max":0,"o":"m 63 314 b 386 0 63 135 194 4 l 386 -325 l 488 -325 l 488 0 b 811 314 679 4 811 135 b 488 629 811 494 679 625 l 488 1042 l 386 1042 l 386 629 b 63 314 194 625 63 494 z m 710 314 b 488 93 710 188 622 96 l 488 535 b 710 314 622 532 710 442 z m 164 314 b 386 535 164 442 251 532 l 386 93 b 164 314 251 96 164 188 z "},"х":{"ha":672,"x_min":0,"x_max":0,"o":"m 158 628 l 29 628 l 272 321 l 19 0 l 149 0 l 336 246 l 522 0 l 653 0 l 399 321 l 643 628 l 514 628 l 336 393 z "},"ц":{"ha":776,"x_min":0,"x_max":0,"o":"m 94 628 l 94 0 l 638 0 l 638 -183 l 735 -183 l 735 94 l 644 94 l 644 628 l 543 628 l 543 94 l 196 94 l 196 628 z "},"ч":{"ha":628,"x_min":0,"x_max":0,"o":"m 57 426 b 271 219 57 275 174 219 b 432 235 313 219 378 226 l 432 0 l 533 0 l 533 628 l 432 628 l 432 331 b 282 314 385 321 321 314 b 158 425 203 314 158 356 l 158 628 l 57 628 z "},"ш":{"ha":965,"x_min":0,"x_max":0,"o":"m 432 94 l 196 94 l 196 628 l 94 628 l 94 0 l 871 0 l 871 628 l 769 628 l 769 94 l 533 94 l 533 628 l 432 628 z "},"щ":{"ha":1004,"x_min":0,"x_max":0,"o":"m 196 628 l 94 628 l 94 0 l 865 0 l 865 -183 l 963 -183 l 963 94 l 871 94 l 871 628 l 769 628 l 769 94 l 533 94 l 533 628 l 432 628 l 432 94 l 196 94 z "},"ъ":{"ha":781,"x_min":0,"x_max":0,"o":"m 746 193 b 551 386 746 293 678 386 l 369 386 l 369 628 l 35 628 l 35 533 l 268 533 l 268 0 l 551 0 b 746 193 678 0 746 93 z m 538 99 l 369 99 l 369 288 l 535 288 b 644 193 606 288 644 250 b 538 99 644 136 608 99 z "},"ы":{"ha":861,"x_min":0,"x_max":0,"o":"m 767 0 l 767 628 l 665 628 l 665 0 z m 471 194 b 364 99 471 138 435 99 l 196 99 l 196 288 l 361 288 b 471 194 432 288 471 251 z m 378 0 b 572 194 506 0 572 94 b 378 386 572 294 506 386 l 196 386 l 196 628 l 94 628 l 94 0 z "},"ь":{"ha":607,"x_min":0,"x_max":0,"o":"m 471 194 b 364 99 471 138 435 99 l 196 99 l 196 288 l 361 288 b 471 194 432 288 471 251 z m 378 0 b 572 194 506 0 572 94 b 378 386 572 294 506 386 l 196 386 l 196 628 l 94 628 l 94 0 z "},"э":{"ha":708,"x_min":0,"x_max":0,"o":"m 319 78 b 125 189 239 78 171 122 l 44 132 b 319 -19 107 40 206 -19 b 646 314 503 -19 646 131 b 319 647 646 499 503 647 b 44 496 206 647 107 588 l 125 440 b 319 550 171 506 239 550 b 539 372 428 550 515 475 l 251 372 l 251 278 l 544 278 b 319 78 525 167 435 78 z "},"ю":{"ha":1022,"x_min":0,"x_max":0,"o":"m 636 647 b 317 372 472 647 342 529 l 196 372 l 196 628 l 94 628 l 94 0 l 196 0 l 196 278 l 313 278 b 636 -19 329 111 465 -19 b 960 314 821 -19 960 131 b 636 647 960 499 821 647 z m 415 314 b 636 550 415 444 508 550 b 858 314 767 550 858 444 b 636 78 858 185 767 78 b 415 314 508 78 415 185 z "},"я":{"ha":686,"x_min":0,"x_max":0,"o":"m 101 429 b 243 236 101 350 133 264 b 76 94 176 192 143 94 b 46 101 67 94 57 96 l 46 0 b 88 -6 61 -3 75 -6 b 343 229 225 -6 260 154 l 490 229 l 490 0 l 592 0 l 592 628 l 293 628 b 101 429 168 628 101 529 z m 321 529 l 490 529 l 490 326 l 322 326 b 203 433 243 326 203 376 b 321 529 203 490 240 529 z "},"ё":{"ha":767,"x_min":0,"x_max":0,"o":"m 63 314 b 400 -17 63 125 211 -17 b 689 133 517 -17 619 35 l 621 194 b 401 79 564 124 489 79 b 164 274 283 79 189 157 l 703 274 b 704 321 703 289 704 306 b 393 646 704 533 579 646 b 63 314 204 646 63 503 z m 393 557 b 608 363 511 557 593 479 l 163 363 b 393 557 182 478 272 557 z m 206 874 b 271 810 206 839 236 810 b 336 874 306 810 336 839 b 271 940 336 910 306 940 b 206 874 236 940 206 910 z m 483 874 b 549 810 483 839 514 810 b 614 874 583 810 614 839 b 549 940 614 910 583 940 b 483 874 514 940 483 910 z "},"ђ":{"ha":740,"x_min":0,"x_max":0,"o":"m 0 826 l 94 826 l 94 0 l 196 0 l 196 415 b 414 544 246 476 329 544 b 551 368 485 544 551 518 l 551 -319 l 653 -319 l 653 392 b 433 646 653 578 568 646 b 196 538 342 646 254 594 l 196 826 l 592 826 l 592 925 l 196 925 l 196 1042 l 94 1042 l 94 925 l 0 925 z "},"ѓ":{"ha":515,"x_min":0,"x_max":0,"o":"m 94 628 l 94 0 l 196 0 l 196 533 l 503 533 l 503 628 z m 283 801 l 490 1042 l 340 1042 l 192 801 z "},"є":{"ha":708,"x_min":0,"x_max":0,"o":"m 389 78 b 164 278 274 78 183 167 l 457 278 l 457 372 l 169 372 b 389 550 193 475 281 550 b 583 440 469 550 538 506 l 664 496 b 389 647 601 588 503 647 b 63 314 206 647 63 499 b 389 -19 63 131 206 -19 b 664 132 503 -19 601 40 l 583 189 b 389 78 538 122 469 78 z "},"ѕ":{"ha":572,"x_min":0,"x_max":0,"o":"m 428 178 b 281 72 428 117 367 72 b 96 172 214 72 171 96 l 31 100 b 281 -19 106 17 182 -19 b 525 179 428 -19 525 56 b 165 468 525 431 165 317 b 285 553 165 521 211 553 b 450 463 358 553 407 526 l 518 529 b 285 647 460 610 386 647 b 69 467 154 647 69 576 b 428 178 69 217 428 321 z "},"і":{"ha":285,"x_min":0,"x_max":0,"o":"m 92 0 l 193 0 l 193 628 l 92 628 z m 75 876 b 143 810 75 840 107 810 b 210 876 178 810 210 840 b 143 943 210 913 178 943 b 75 876 107 943 75 913 z "},"ї":{"ha":285,"x_min":0,"x_max":0,"o":"m 92 0 l 193 0 l 193 628 l 92 628 z m -61 874 b 4 810 -61 839 -31 810 b 69 874 39 810 69 839 b 4 940 69 910 39 940 b -61 874 -31 940 -61 910 z m 217 874 b 282 810 217 839 247 810 b 347 874 317 810 347 839 b 282 940 347 910 317 940 b 217 874 247 940 217 910 z "},"ј":{"ha":285,"x_min":0,"x_max":0,"o":"m 92 -319 l 193 -319 l 193 628 l 92 628 z m 75 876 b 143 810 75 840 107 810 b 210 876 178 810 210 840 b 143 943 210 913 178 943 b 75 876 107 943 75 913 z "},"љ":{"ha":1019,"x_min":0,"x_max":0,"o":"m 14 1 b 68 -6 32 -3 50 -6 b 278 533 226 -6 278 171 l 507 533 l 507 0 l 790 0 b 985 194 918 0 985 94 b 790 386 985 294 918 386 l 608 386 l 608 628 l 179 628 b 56 94 179 243 153 94 b 14 101 44 94 26 96 z m 774 288 b 883 194 844 288 883 251 b 776 99 883 138 847 99 l 608 99 l 608 288 z "},"њ":{"ha":1056,"x_min":0,"x_max":0,"o":"m 94 0 l 196 0 l 196 288 l 543 288 l 543 0 l 826 0 b 1021 194 954 0 1021 94 b 826 386 1021 294 954 386 l 644 386 l 644 628 l 543 628 l 543 386 l 196 386 l 196 628 l 94 628 z m 644 99 l 644 288 l 810 288 b 919 194 881 288 919 251 b 813 99 919 138 883 99 z "},"ћ":{"ha":740,"x_min":0,"x_max":0,"o":"m 94 826 l 94 0 l 196 0 l 196 415 b 414 544 246 476 329 544 b 551 368 485 544 551 518 l 551 0 l 653 0 l 653 392 b 433 646 653 578 568 646 b 196 538 342 646 254 594 l 196 826 l 592 826 l 592 925 l 196 925 l 196 1042 l 94 1042 l 94 925 l 0 925 l 0 826 z "},"ќ":{"ha":654,"x_min":0,"x_max":0,"o":"m 94 0 l 196 0 l 196 278 l 254 278 b 574 -8 360 219 406 -8 b 631 0 590 -8 610 -6 l 631 101 b 592 93 617 96 604 93 b 332 331 483 93 422 293 l 617 628 l 492 628 l 246 372 l 196 372 l 196 628 l 94 628 z m 339 801 l 546 1042 l 396 1042 l 247 801 z "},"ў":{"ha":657,"x_min":0,"x_max":0,"o":"m 133 -319 l 243 -319 l 643 628 l 533 628 l 331 142 l 124 628 l 14 628 l 274 10 z m 329 744 b 575 876 438 744 519 778 l 494 935 b 329 838 451 860 414 838 b 164 935 244 838 207 860 l 83 876 b 329 744 139 778 221 744 z "},"џ":{"ha":739,"x_min":0,"x_max":0,"o":"m 94 628 l 94 0 l 321 0 l 321 -183 l 418 -183 l 418 0 l 644 0 l 644 628 l 543 628 l 543 94 l 196 94 l 196 628 z "},"Ґ":{"ha":638,"x_min":0,"x_max":0,"o":"m 104 0 l 213 0 l 213 867 l 586 867 l 586 1126 l 478 1126 l 478 972 l 104 972 z "},"ґ":{"ha":515,"x_min":0,"x_max":0,"o":"m 196 0 l 196 533 l 503 533 l 503 765 l 401 765 l 401 628 l 94 628 l 94 0 z "},"–":{"ha":797,"x_min":0,"x_max":0,"o":"m 56 271 l 742 271 l 742 360 l 56 360 z "},"—":{"ha":1119,"x_min":0,"x_max":0,"o":"m 0 271 l 1119 271 l 1119 360 l 0 360 z "},"‘":{"ha":299,"x_min":0,"x_max":0,"o":"m 14 578 l 89 578 l 243 972 l 114 972 z "},"’":{"ha":299,"x_min":0,"x_max":0,"o":"m 14 578 l 89 578 l 243 972 l 114 972 z "},"‚":{"ha":299,"x_min":0,"x_max":0,"o":"m 14 -224 l 89 -224 l 243 171 l 114 171 z "},"“":{"ha":535,"x_min":0,"x_max":0,"o":"m 521 972 l 446 972 l 292 578 l 421 578 z m 285 972 l 210 972 l 56 578 l 185 578 z "},"”":{"ha":535,"x_min":0,"x_max":0,"o":"m 14 578 l 89 578 l 243 972 l 114 972 z m 250 578 l 325 578 l 479 972 l 350 972 z "},"„":{"ha":535,"x_min":0,"x_max":0,"o":"m 14 -224 l 89 -224 l 243 171 l 114 171 z m 250 -224 l 325 -224 l 479 171 l 350 171 z "},"†":{"ha":640,"x_min":0,"x_max":0,"o":"m 56 568 l 276 596 l 249 -168 l 392 -168 l 364 596 l 585 568 l 585 711 l 364 683 l 392 990 l 249 990 l 276 683 l 56 711 z "},"‡":{"ha":640,"x_min":0,"x_max":0,"o":"m 276 139 l 249 -168 l 392 -168 l 364 139 l 585 111 l 585 254 l 364 226 l 364 596 l 585 568 l 585 711 l 364 683 l 392 990 l 249 990 l 276 683 l 56 711 l 56 568 l 276 596 l 276 226 l 56 254 l 56 111 z "},"•":{"ha":372,"x_min":0,"x_max":0,"o":"m 56 426 b 185 299 56 357 115 299 b 315 426 257 299 315 357 b 185 557 315 499 254 557 b 56 426 117 557 56 499 z "},"…":{"ha":888,"x_min":0,"x_max":0,"o":"m 69 69 b 147 -7 69 26 104 -7 b 226 69 190 -7 226 26 b 147 147 226 111 190 147 b 69 69 104 147 69 111 z m 365 69 b 443 -7 365 26 400 -7 b 522 69 486 -7 522 26 b 443 147 522 111 486 147 b 365 69 400 147 365 111 z m 661 69 b 739 -7 661 26 696 -7 b 818 69 782 -7 818 26 b 739 147 818 111 782 147 b 661 69 696 147 661 111 z "},"‰":{"ha":1500,"x_min":0,"x_max":0,"o":"m 219 0 l 957 972 l 835 972 l 97 0 z m 240 508 b 140 708 193 508 140 564 b 240 910 140 853 193 910 b 343 708 289 910 343 853 b 240 508 343 564 289 508 z m 240 993 b 56 708 139 993 56 906 b 240 425 56 513 139 425 b 428 708 344 425 428 513 b 240 993 428 906 344 993 z m 815 464 b 915 264 863 464 915 408 b 815 63 915 119 863 63 b 713 264 767 63 713 119 b 815 464 713 408 767 464 z m 815 -21 b 1000 264 917 -21 1000 67 b 815 547 1000 460 917 547 b 628 264 711 547 628 460 b 815 -21 628 67 711 -21 z m 1260 464 b 1360 264 1307 464 1360 408 b 1260 63 1360 119 1307 63 b 1157 264 1211 63 1157 119 b 1260 464 1157 408 1211 464 z m 1260 -21 b 1444 264 1361 -21 1444 67 b 1260 547 1444 460 1361 547 b 1072 264 1156 547 1072 460 b 1260 -21 1072 67 1156 -21 z "},"‹":{"ha":469,"x_min":0,"x_max":0,"o":"m 56 328 l 339 0 l 414 67 l 188 328 l 414 589 l 339 656 z "},"›":{"ha":469,"x_min":0,"x_max":0,"o":"m 414 328 l 131 656 l 56 589 l 282 328 l 56 67 l 131 0 z "},"⁄":{"ha":1054,"x_min":0,"x_max":0,"o":"m 219 0 l 957 972 l 835 972 l 97 0 z "},"€":{"ha":785,"x_min":0,"x_max":0,"o":"m 28 336 l 139 336 b 458 -21 175 90 304 -21 b 743 194 579 -21 685 47 l 643 238 b 458 79 600 126 526 79 b 249 336 372 79 281 154 l 488 336 l 524 436 l 238 436 b 236 486 236 453 236 469 b 238 536 236 503 236 519 l 557 536 l 592 636 l 249 636 b 458 892 281 818 372 892 b 643 735 526 892 599 844 l 743 778 b 458 993 685 925 579 993 b 139 636 304 993 175 882 l 28 636 l 28 536 l 129 536 b 128 486 128 519 128 503 b 129 436 128 469 128 453 l 28 436 z "},"₽":{"ha":833,"x_min":0,"x_max":0,"o":"m 194 369 l 194 269 l 63 269 l 63 169 l 194 169 l 194 0 l 303 0 l 303 169 l 642 169 l 642 269 l 303 269 l 303 369 l 460 369 b 771 669 633 369 771 501 b 460 972 771 838 633 972 l 194 972 l 194 469 l 63 469 l 63 369 z m 449 469 l 303 469 l 303 867 l 449 867 b 663 669 567 867 663 783 b 449 469 663 556 567 469 z "},"№":{"ha":1456,"x_min":0,"x_max":0,"o":"m 807 188 l 213 972 l 104 972 l 104 0 l 213 0 l 213 783 l 807 0 l 915 0 l 915 972 l 807 972 z m 1199 508 b 1099 708 1151 508 1099 564 b 1199 910 1099 853 1151 910 b 1301 708 1247 910 1301 853 b 1199 508 1301 564 1247 508 z m 1199 993 b 1014 708 1097 993 1014 906 b 1199 425 1014 513 1097 425 b 1386 708 1303 425 1386 513 b 1199 993 1386 906 1303 993 z m 1014 228 l 1386 228 l 1386 329 l 1014 329 z "},"™":{"ha":1101,"x_min":0,"x_max":0,"o":"m 275 506 l 275 890 l 444 890 l 444 972 l 21 972 l 21 890 l 189 890 l 189 506 z m 485 506 l 574 506 l 607 788 l 746 601 l 769 601 l 910 788 l 943 506 l 1032 506 l 974 972 l 946 972 l 757 724 l 571 972 l 542 972 z "},"∞":{"ha":1040,"x_min":0,"x_max":0,"o":"m 279 149 b 519 311 400 149 478 251 b 761 149 563 251 639 149 b 999 399 897 149 999 232 b 761 647 999 554 899 647 b 519 485 639 647 563 544 b 279 647 478 544 400 647 b 42 399 139 647 42 558 b 279 149 42 235 144 149 z m 761 547 b 899 399 839 547 899 499 b 761 249 899 297 839 249 b 579 397 678 249 614 344 b 761 547 610 458 686 547 z m 142 399 b 279 547 142 499 201 547 b 461 399 364 547 428 451 b 279 249 421 338 363 249 b 142 399 201 249 142 297 z "},"≈":{"ha":889,"x_min":0,"x_max":0,"o":"m 65 419 b 258 535 144 501 208 535 b 631 438 383 535 499 438 b 825 531 693 438 758 461 l 825 653 b 631 536 744 569 682 536 b 260 633 507 536 392 633 b 65 542 197 633 132 610 z m 65 142 b 258 257 144 224 208 257 b 631 160 383 257 499 160 b 825 253 693 160 758 183 l 825 375 b 631 258 744 292 682 258 b 260 356 507 258 392 356 b 65 264 197 356 132 332 z "},"≠":{"ha":889,"x_min":0,"x_max":0,"o":"m 314 208 l 231 0 l 318 -39 l 417 208 l 825 208 l 825 308 l 456 308 l 526 486 l 825 486 l 825 586 l 567 586 l 660 821 l 572 857 l 464 586 l 65 586 l 65 486 l 425 486 l 354 308 l 65 308 l 65 208 z "},"≤":{"ha":889,"x_min":0,"x_max":0,"o":"m 824 261 l 283 451 l 824 617 l 824 722 l 65 489 l 65 417 l 824 156 z m 65 100 l 65 0 l 825 0 l 825 100 z "},"≥":{"ha":889,"x_min":0,"x_max":0,"o":"m 825 417 l 825 489 l 67 722 l 67 617 l 607 451 l 67 261 l 67 156 z m 65 0 l 825 0 l 825 100 l 65 100 z "},"◊":{"ha":833,"x_min":0,"x_max":0,"o":"m 188 486 l 417 832 l 646 486 l 417 140 z m 69 486 l 417 -21 l 764 486 l 417 993 z "},"ﬁ":{"ha":740,"x_min":0,"x_max":0,"o":"m 42 535 l 153 535 l 153 0 l 254 0 l 254 533 l 547 533 l 547 0 l 649 0 l 649 628 l 254 628 l 254 868 b 339 967 254 938 290 967 b 457 932 371 967 407 961 l 485 1022 b 326 1061 428 1054 365 1061 b 153 867 233 1061 153 1008 l 153 628 l 42 628 z m 599 810 b 665 876 633 810 665 840 b 599 943 665 913 633 943 b 531 876 563 943 531 913 b 599 810 531 840 563 810 z "},"ﬂ":{"ha":746,"x_min":0,"x_max":0,"o":"m 42 535 l 153 535 l 153 0 l 254 0 l 254 533 l 442 533 l 442 628 l 254 628 l 254 813 b 401 967 254 883 293 967 b 550 813 510 967 550 883 l 550 0 l 651 0 l 651 1042 l 550 1018 b 401 1061 511 1046 460 1061 b 153 813 249 1061 153 956 l 153 628 l 42 628 z "}}}
